Rosario-Bold.ufo
<glyph name="exclam" format="2">
  <advance width="329"/>
  <unicode hex="0021"/>
  <note>
exclam
</note>
  <outline>
    <contour>
      <point x="100" y="732" type="line"/>
      <point x="129" y="219" type="line"/>
      <point x="219" y="219" type="line"/>
      <point x="248" y="732" type="line"/>
    </contour>
    <contour>
      <point x="249" y="62" type="curve" smooth="yes"/>
      <point x="249" y="103"/>
      <point x="215" y="136"/>
      <point x="174" y="136" type="curve" smooth="yes"/>
      <point x="134" y="136"/>
      <point x="100" y="102"/>
      <point x="100" y="62" type="curve" smooth="yes"/>
      <point x="100" y="21"/>
      <point x="134" y="-12"/>
      <point x="174" y="-12" type="curve" smooth="yes"/>
      <point x="215" y="-12"/>
      <point x="249" y="21"/>
    </contour>
  </outline>
</glyph>
<glyph name="quotedbl" format="2">
  <advance width="367"/>
  <unicode hex="0022"/>
  <note>
quotedbl
</note>
  <outline>
    <contour>
      <point x="100" y="449" type="curve"/>
      <point x="121" y="449" type="line"/>
      <point x="157" y="559" type="line"/>
      <point x="157" y="732" type="line"/>
      <point x="63" y="732" type="line"/>
      <point x="63" y="559" type="line" smooth="yes"/>
      <point x="63" y="558"/>
      <point x="98" y="457"/>
    </contour>
    <contour>
      <point x="246" y="449" type="line"/>
      <point x="268" y="449" type="line"/>
      <point x="304" y="559" type="line"/>
      <point x="304" y="732" type="line"/>
      <point x="210" y="732" type="line"/>
      <point x="210" y="559" type="line"/>
    </contour>
  </outline>
</glyph>
<glyph name="percent" format="2">
  <advance width="987"/>
  <unicode hex="0025"/>
  <note>
percent
</note>
  <guideline x="766" y="699" angle="0"/>
  <outline>
    <contour>
      <point x="628" y="732" type="line"/>
      <point x="257" y="0" type="line"/>
      <point x="350" y="0" type="line"/>
      <point x="722" y="732" type="line"/>
    </contour>
    <contour>
      <point x="234" y="732" type="curve" smooth="yes"/>
      <point x="115" y="732"/>
      <point x="51" y="644"/>
      <point x="51" y="521" type="curve" smooth="yes"/>
      <point x="51" y="401"/>
      <point x="110" y="308"/>
      <point x="226" y="308" type="curve" smooth="yes"/>
      <point x="342" y="308"/>
      <point x="408" y="401"/>
      <point x="408" y="521" type="curve" smooth="yes"/>
      <point x="408" y="643"/>
      <point x="353" y="732"/>
    </contour>
    <contour>
      <point x="230" y="658" type="curve" smooth="yes"/>
      <point x="301" y="658"/>
      <point x="313" y="580"/>
      <point x="313" y="521" type="curve" smooth="yes"/>
      <point x="313" y="459"/>
      <point x="304" y="382"/>
      <point x="230" y="382" type="curve" smooth="yes"/>
      <point x="156" y="382"/>
      <point x="146" y="459"/>
      <point x="146" y="521" type="curve" smooth="yes"/>
      <point x="146" y="579"/>
      <point x="161" y="658"/>
    </contour>
    <contour>
      <point x="762" y="414" type="curve" smooth="yes"/>
      <point x="643" y="414"/>
      <point x="579" y="326"/>
      <point x="579" y="203" type="curve" smooth="yes"/>
      <point x="579" y="83"/>
      <point x="638" y="-10"/>
      <point x="754" y="-10" type="curve" smooth="yes"/>
      <point x="870" y="-10"/>
      <point x="936" y="83"/>
      <point x="936" y="203" type="curve" smooth="yes"/>
      <point x="936" y="325"/>
      <point x="881" y="414"/>
    </contour>
    <contour>
      <point x="758" y="340" type="curve" smooth="yes"/>
      <point x="829" y="340"/>
      <point x="841" y="262"/>
      <point x="841" y="203" type="curve" smooth="yes"/>
      <point x="841" y="141"/>
      <point x="832" y="64"/>
      <point x="758" y="64" type="curve" smooth="yes"/>
      <point x="684" y="64"/>
      <point x="674" y="141"/>
      <point x="674" y="203" type="curve" smooth="yes"/>
      <point x="674" y="261"/>
      <point x="689" y="340"/>
    </contour>
    <contour>
      <point x="234" y="732" type="line"/>
      <point x="230" y="658" type="line"/>
      <point x="634" y="658" type="line"/>
      <point x="634" y="732" type="line"/>
    </contour>
  </outline>
</glyph>
<glyph name="ampersand" format="2">
  <advance width="661"/>
  <unicode hex="0026"/>
  <note>
ampersand
</note>
  <outline>
    <contour>
      <point x="586" y="318" type="curve"/>
      <point x="499" y="340" type="line"/>
      <point x="468" y="159"/>
      <point x="343" y="69"/>
      <point x="250" y="69" type="curve" smooth="yes"/>
      <point x="181" y="69"/>
      <point x="132" y="129"/>
      <point x="132" y="204" type="curve" smooth="yes"/>
      <point x="132" y="269"/>
      <point x="167" y="317"/>
      <point x="223" y="340" type="curve"/>
      <point x="202" y="414" type="line"/>
      <point x="85" y="373"/>
      <point x="11" y="288"/>
      <point x="11" y="184" type="curve" smooth="yes"/>
      <point x="11" y="72"/>
      <point x="99" y="-9"/>
      <point x="231" y="-9" type="curve" smooth="yes"/>
      <point x="398" y="-9"/>
      <point x="524" y="108"/>
    </contour>
    <contour>
      <point x="661" y="-3" type="curve"/>
      <point x="651" y="84" type="line"/>
      <point x="628" y="78"/>
      <point x="606" y="75"/>
      <point x="586" y="75" type="curve" smooth="yes"/>
      <point x="531" y="75"/>
      <point x="483" y="95"/>
      <point x="437" y="131" type="curve" smooth="yes"/>
      <point x="328" y="214"/>
      <point x="233" y="383"/>
      <point x="233" y="549" type="curve" smooth="yes"/>
      <point x="233" y="619"/>
      <point x="251" y="664"/>
      <point x="290" y="664" type="curve" smooth="yes"/>
      <point x="317" y="664"/>
      <point x="330" y="642"/>
      <point x="330" y="608" type="curve" smooth="yes"/>
      <point x="330" y="551"/>
      <point x="299" y="450"/>
      <point x="210" y="418" type="curve"/>
      <point x="229" y="341" type="line"/>
      <point x="357" y="391"/>
      <point x="435" y="514"/>
      <point x="435" y="618" type="curve" smooth="yes"/>
      <point x="435" y="692"/>
      <point x="381" y="743"/>
      <point x="296" y="743" type="curve" smooth="yes"/>
      <point x="206" y="743"/>
      <point x="115" y="677"/>
      <point x="115" y="529" type="curve" smooth="yes"/>
      <point x="115" y="337"/>
      <point x="225" y="149"/>
      <point x="358" y="57" type="curve" smooth="yes"/>
      <point x="422" y="12"/>
      <point x="496" y="-10"/>
      <point x="578" y="-10" type="curve" smooth="yes"/>
      <point x="604" y="-10"/>
      <point x="631" y="-8"/>
    </contour>
  </outline>
</glyph>
<glyph name="two" format="2">
  <advance width="470"/>
  <unicode hex="0032"/>
  <note>
two
</note>
  <guideline x="335" y="421" angle="0"/>
  <outline>
    <contour>
      <point x="255" y="512" type="curve" smooth="yes"/>
      <point x="181" y="512"/>
      <point x="96" y="485"/>
      <point x="32" y="437" type="curve"/>
      <point x="92" y="355" type="line"/>
      <point x="125" y="388"/>
      <point x="185" y="418"/>
      <point x="231" y="418" type="curve" smooth="yes"/>
      <point x="265" y="418"/>
      <point x="290" y="402"/>
      <point x="290" y="358" type="curve" smooth="yes"/>
      <point x="290" y="293"/>
      <point x="211" y="182"/>
      <point x="28" y="77" type="curve"/>
      <point x="28" y="0" type="line"/>
      <point x="428" y="0" type="line"/>
      <point x="449" y="99" type="line"/>
      <point x="221" y="99" type="line"/>
      <point x="326" y="169"/>
      <point x="422" y="262"/>
      <point x="422" y="375" type="curve" smooth="yes"/>
      <point x="422" y="470"/>
      <point x="347" y="512"/>
    </contour>
  </outline>
</glyph>
<glyph name="three" format="2">
  <advance width="421"/>
  <unicode hex="0033"/>
  <note>
three
</note>
  <outline>
    <contour>
      <point x="235" y="512" type="curve" smooth="yes"/>
      <point x="166" y="512"/>
      <point x="84" y="487"/>
      <point x="19" y="437" type="curve"/>
      <point x="79" y="355" type="line"/>
      <point x="111" y="392"/>
      <point x="169" y="419"/>
      <point x="208" y="419" type="curve" smooth="yes"/>
      <point x="236" y="419"/>
      <point x="252" y="404"/>
      <point x="252" y="373" type="curve" smooth="yes"/>
      <point x="252" y="289"/>
      <point x="138" y="217"/>
      <point x="75" y="188" type="curve"/>
      <point x="105" y="130" type="line"/>
      <point x="125" y="138"/>
      <point x="146" y="142"/>
      <point x="165" y="142" type="curve" smooth="yes"/>
      <point x="217" y="142"/>
      <point x="260" y="114"/>
      <point x="260" y="56" type="curve" smooth="yes"/>
      <point x="260" y="-97"/>
      <point x="123" y="-128"/>
      <point x="-41" y="-139" type="curve"/>
      <point x="-36" y="-198" type="line"/>
      <point x="233" y="-198"/>
      <point x="392" y="-97"/>
      <point x="392" y="60" type="curve" smooth="yes"/>
      <point x="392" y="156"/>
      <point x="299" y="199"/>
      <point x="228" y="199" type="curve"/>
      <point x="311" y="246"/>
      <point x="378" y="322"/>
      <point x="378" y="402" type="curve" smooth="yes"/>
      <point x="378" y="479"/>
      <point x="317" y="512"/>
    </contour>
  </outline>
</glyph>
<glyph name="four" format="2">
  <advance width="502"/>
  <unicode hex="0034"/>
  <note>
four
</note>
  <outline>
    <contour>
      <point x="270" y="498" type="line"/>
      <point x="4" y="57" type="line"/>
      <point x="4" y="-1" type="line"/>
      <point x="276" y="-1" type="line"/>
      <point x="276" y="-184" type="line"/>
      <point x="401" y="-184" type="line"/>
      <point x="401" y="-1" type="line"/>
      <point x="480" y="-1" type="line"/>
      <point x="508" y="99" type="line"/>
      <point x="401" y="99" type="line"/>
      <point x="401" y="498" type="line"/>
    </contour>
    <contour>
      <point x="276" y="349" type="line"/>
      <point x="276" y="99" type="line"/>
      <point x="127" y="99" type="line"/>
    </contour>
  </outline>
</glyph>
<glyph name="five" format="2">
  <advance width="407"/>
  <unicode hex="0035"/>
  <note>
five
</note>
  <guideline x="216" y="548" angle="90"/>
  <guideline x="348" y="548" angle="90"/>
  <outline>
    <contour>
      <point x="130" y="498" type="line"/>
      <point x="32" y="255" type="line"/>
      <point x="132" y="225"/>
      <point x="216" y="166"/>
      <point x="216" y="77" type="curve" smooth="yes"/>
      <point x="216" y="-48"/>
      <point x="110" y="-119"/>
      <point x="-12" y="-150" type="curve"/>
      <point x="4" y="-207" type="line"/>
      <point x="173" y="-187"/>
      <point x="348" y="-85"/>
      <point x="348" y="88" type="curve" smooth="yes"/>
      <point x="348" y="194"/>
      <point x="264" y="260"/>
      <point x="144" y="300" type="curve"/>
      <point x="178" y="377" type="line"/>
      <point x="382" y="377" type="line"/>
      <point x="417" y="498" type="line"/>
    </contour>
  </outline>
</glyph>
<glyph name="six" format="2">
  <advance width="556"/>
  <unicode hex="0036"/>
  <note>
six
</note>
  <guideline x="390" y="548" angle="90"/>
  <guideline x="522" y="548" angle="90"/>
  <guideline x="34" y="548" angle="90"/>
  <guideline x="166" y="548" angle="90"/>
  <outline>
    <contour>
      <point x="469" y="730" type="line"/>
      <point x="248" y="670"/>
      <point x="34" y="472"/>
      <point x="34" y="242" type="curve" smooth="yes"/>
      <point x="34" y="68"/>
      <point x="145" y="-12"/>
      <point x="271" y="-12" type="curve" smooth="yes"/>
      <point x="436" y="-12"/>
      <point x="522" y="113"/>
      <point x="522" y="229" type="curve" smooth="yes"/>
      <point x="522" y="329"/>
      <point x="458" y="421"/>
      <point x="323" y="421" type="curve" smooth="yes"/>
      <point x="277" y="421"/>
      <point x="228" y="408"/>
      <point x="180" y="380" type="curve"/>
      <point x="165" y="296" type="line"/>
      <point x="205" y="323"/>
      <point x="245" y="336"/>
      <point x="280" y="336" type="curve" smooth="yes"/>
      <point x="356" y="336"/>
      <point x="390" y="276"/>
      <point x="390" y="214" type="curve" smooth="yes"/>
      <point x="390" y="144"/>
      <point x="351" y="71"/>
      <point x="275" y="71" type="curve" smooth="yes"/>
      <point x="213" y="71"/>
      <point x="166" y="123"/>
      <point x="166" y="234" type="curve" smooth="yes"/>
      <point x="166" y="376"/>
      <point x="257" y="553"/>
      <point x="497" y="665" type="curve"/>
    </contour>
  </outline>
</glyph>
<glyph name="semicolon" format="2">
  <advance width="334"/>
  <unicode hex="003B"/>
  <note>
semicolon
</note>
  <outline>
    <contour>
      <point x="167" y="431" type="curve" smooth="yes"/>
      <point x="124" y="431"/>
      <point x="90" y="396"/>
      <point x="90" y="354" type="curve" smooth="yes"/>
      <point x="90" y="311"/>
      <point x="124" y="276"/>
      <point x="167" y="276" type="curve" smooth="yes"/>
      <point x="210" y="276"/>
      <point x="244" y="311"/>
      <point x="244" y="354" type="curve" smooth="yes"/>
      <point x="244" y="396"/>
      <point x="210" y="431"/>
    </contour>
    <contour>
      <point x="162" y="139" type="curve" smooth="yes"/>
      <point x="123" y="139"/>
      <point x="93" y="107"/>
      <point x="93" y="69" type="curve" smooth="yes"/>
      <point x="93" y="14"/>
      <point x="141" y="5"/>
      <point x="141" y="-20" type="curve" smooth="yes"/>
      <point x="141" y="-41"/>
      <point x="111" y="-78"/>
      <point x="95" y="-93" type="curve"/>
      <point x="134" y="-134" type="line"/>
      <point x="192" y="-92"/>
      <point x="243" y="-29"/>
      <point x="243" y="46" type="curve" smooth="yes"/>
      <point x="243" y="94"/>
      <point x="214" y="139"/>
    </contour>
  </outline>
</glyph>
<glyph name="question" format="2">
  <advance width="438"/>
  <unicode hex="003F"/>
  <note>
question
</note>
  <outline>
    <contour>
      <point x="193" y="722" type="curve" smooth="yes"/>
      <point x="136" y="722"/>
      <point x="65" y="706"/>
      <point x="20" y="678" type="curve"/>
      <point x="66" y="590" type="line"/>
      <point x="97" y="611"/>
      <point x="132" y="625"/>
      <point x="170" y="625" type="curve" smooth="yes"/>
      <point x="222" y="625"/>
      <point x="274" y="594"/>
      <point x="274" y="537" type="curve" smooth="yes"/>
      <point x="274" y="465"/>
      <point x="192" y="427"/>
      <point x="131" y="422" type="curve"/>
      <point x="131" y="217" type="line"/>
      <point x="238" y="217" type="line"/>
      <point x="238" y="351" type="line"/>
      <point x="329" y="389"/>
      <point x="403" y="442"/>
      <point x="403" y="544" type="curve" smooth="yes"/>
      <point x="403" y="665"/>
      <point x="300" y="722"/>
    </contour>
    <contour>
      <point x="184" y="143" type="curve" smooth="yes"/>
      <point x="141" y="143"/>
      <point x="107" y="108"/>
      <point x="107" y="65" type="curve" smooth="yes"/>
      <point x="107" y="23"/>
      <point x="141" y="-12"/>
      <point x="184" y="-12" type="curve" smooth="yes"/>
      <point x="227" y="-12"/>
      <point x="261" y="23"/>
      <point x="261" y="65" type="curve" smooth="yes"/>
      <point x="261" y="108"/>
      <point x="227" y="143"/>
    </contour>
  </outline>
</glyph>
<glyph name="B" format="2">
  <advance width="614"/>
  <unicode hex="0042"/>
  <note>
B
</note>
  <outline>
    <contour>
      <point x="552" y="561" type="curve" smooth="yes"/>
      <point x="552" y="699"/>
      <point x="428" y="732"/>
      <point x="313" y="732" type="curve" smooth="yes"/>
      <point x="53" y="732" type="line"/>
      <point x="54" y="727"/>
      <point x="67" y="673"/>
      <point x="67" y="671" type="curve" smooth="yes"/>
      <point x="67" y="0" type="line"/>
      <point x="323" y="0" type="line" smooth="yes"/>
      <point x="452" y="0"/>
      <point x="586" y="53"/>
      <point x="586" y="203" type="curve" smooth="yes"/>
      <point x="586" y="308"/>
      <point x="501" y="383"/>
      <point x="403" y="399" type="curve"/>
      <point x="485" y="411"/>
      <point x="552" y="475"/>
    </contour>
    <contour>
      <point x="407" y="542" type="curve" smooth="yes"/>
      <point x="407" y="484"/>
      <point x="364" y="446"/>
      <point x="308" y="446" type="curve" smooth="yes"/>
      <point x="205" y="446" type="line"/>
      <point x="205" y="633" type="line"/>
      <point x="305" y="633" type="line" smooth="yes"/>
      <point x="364" y="633"/>
      <point x="407" y="606"/>
    </contour>
    <contour>
      <point x="441" y="219" type="curve" smooth="yes"/>
      <point x="441" y="143"/>
      <point x="388" y="99"/>
      <point x="314" y="99" type="curve" smooth="yes"/>
      <point x="205" y="99" type="line"/>
      <point x="205" y="347" type="line"/>
      <point x="283" y="347" type="line" smooth="yes"/>
      <point x="363" y="347"/>
      <point x="441" y="309"/>
    </contour>
  </outline>
</glyph>
<glyph name="C" format="2">
  <advance width="624"/>
  <unicode hex="0043"/>
  <note>
C
</note>
  <guideline x="678" y="82" angle="0"/>
  <anchor x="357" y="0" name="bottom"/>
  <anchor x="354" y="732" name="top"/>
  <outline>
    <contour>
      <point x="370" y="-12" type="curve" smooth="yes"/>
      <point x="467" y="-12"/>
      <point x="534" y="12"/>
      <point x="612" y="62" type="curve"/>
      <point x="571" y="136" type="line"/>
      <point x="501" y="100"/>
      <point x="439" y="86"/>
      <point x="383" y="86" type="curve" smooth="yes"/>
      <point x="248" y="86"/>
      <point x="169" y="193"/>
      <point x="169" y="374" type="curve" smooth="yes"/>
      <point x="169" y="509"/>
      <point x="220" y="649"/>
      <point x="376" y="649" type="curve" smooth="yes"/>
      <point x="431" y="649"/>
      <point x="499" y="625"/>
      <point x="536" y="583" type="curve"/>
      <point x="608" y="675" type="line"/>
      <point x="552" y="725"/>
      <point x="443" y="746"/>
      <point x="371" y="746" type="curve" smooth="yes"/>
      <point x="152" y="746"/>
      <point x="20" y="583"/>
      <point x="20" y="371" type="curve" smooth="yes"/>
      <point x="20" y="151"/>
      <point x="138" y="-12"/>
    </contour>
  </outline>
</glyph>
<glyph name="I" format="2">
  <advance width="268"/>
  <unicode hex="0049"/>
  <note>
I
</note>
  <anchor x="137" y="0" name="bottom"/>
  <anchor x="113" y="0" name="ogonek"/>
  <anchor x="135" y="732" name="top"/>
  <outline>
    <contour>
      <point x="52" y="732" type="line"/>
      <point x="53" y="727"/>
      <point x="66" y="673"/>
      <point x="66" y="671" type="curve" smooth="yes"/>
      <point x="66" y="0" type="line"/>
      <point x="204" y="0" type="line"/>
      <point x="204" y="732" type="line"/>
    </contour>
  </outline>
</glyph>
<glyph name="O" format="2">
  <advance width="737"/>
  <unicode hex="004F"/>
  <note>
O
</note>
  <anchor x="383" y="0" name="bottom"/>
  <anchor x="369" y="363" name="center"/>
  <anchor x="424" y="0" name="ogonek"/>
  <anchor x="369" y="732" name="top"/>
  <anchor x="401" y="732" name="topright"/>
  <outline>
    <contour>
      <point x="365" y="-11" type="curve" smooth="yes"/>
      <point x="587" y="-11"/>
      <point x="718" y="150"/>
      <point x="718" y="365" type="curve" smooth="yes"/>
      <point x="718" y="584"/>
      <point x="594" y="743"/>
      <point x="366" y="743" type="curve" smooth="yes"/>
      <point x="142" y="743"/>
      <point x="19" y="581"/>
      <point x="19" y="367" type="curve" smooth="yes"/>
      <point x="19" y="155"/>
      <point x="141" y="-11"/>
    </contour>
    <contour>
      <point x="369" y="84" type="curve" smooth="yes"/>
      <point x="212" y="84"/>
      <point x="166" y="240"/>
      <point x="166" y="371" type="curve" smooth="yes"/>
      <point x="166" y="500"/>
      <point x="213" y="648"/>
      <point x="367" y="648" type="curve" smooth="yes"/>
      <point x="525" y="648"/>
      <point x="570" y="491"/>
      <point x="570" y="361" type="curve" smooth="yes"/>
      <point x="570" y="231"/>
      <point x="523" y="84"/>
    </contour>
  </outline>
</glyph>
<glyph name="P" format="2">
  <advance width="575"/>
  <unicode hex="0050"/>
  <note>
P
</note>
  <outline>
    <contour>
      <point x="51" y="732" type="line"/>
      <point x="66" y="671" type="line"/>
      <point x="66" y="0" type="line"/>
      <point x="203" y="0" type="line"/>
      <point x="203" y="294" type="line"/>
      <point x="285" y="294" type="line" smooth="yes"/>
      <point x="421" y="294"/>
      <point x="549" y="360"/>
      <point x="549" y="513" type="curve" smooth="yes"/>
      <point x="549" y="678"/>
      <point x="428" y="732"/>
      <point x="283" y="732" type="curve" smooth="yes"/>
    </contour>
    <contour>
      <point x="204" y="633" type="line"/>
      <point x="289" y="633" type="line" smooth="yes"/>
      <point x="365" y="633"/>
      <point x="403" y="586"/>
      <point x="403" y="513" type="curve" smooth="yes"/>
      <point x="403" y="442"/>
      <point x="362" y="391"/>
      <point x="288" y="391" type="curve" smooth="yes"/>
      <point x="204" y="391" type="line"/>
    </contour>
  </outline>
</glyph>
<glyph name="S" format="2">
  <advance width="516"/>
  <unicode hex="0053"/>
  <note>
S
</note>
  <anchor x="267" y="0" name="bottom"/>
  <anchor x="262" y="732" name="top"/>
  <outline>
    <contour>
      <point x="278" y="744" type="curve" smooth="yes"/>
      <point x="150" y="744"/>
      <point x="28" y="680"/>
      <point x="28" y="535" type="curve" smooth="yes"/>
      <point x="28" y="411"/>
      <point x="122" y="366"/>
      <point x="209" y="326" type="curve" smooth="yes"/>
      <point x="282" y="292"/>
      <point x="350" y="261"/>
      <point x="350" y="190" type="curve" smooth="yes"/>
      <point x="350" y="120"/>
      <point x="289" y="84"/>
      <point x="226" y="84" type="curve" smooth="yes"/>
      <point x="162" y="84"/>
      <point x="97" y="114"/>
      <point x="51" y="157" type="curve"/>
      <point x="4" y="46" type="line"/>
      <point x="75" y="4"/>
      <point x="157" y="-12"/>
      <point x="239" y="-12" type="curve" smooth="yes"/>
      <point x="375" y="-12"/>
      <point x="496" y="68"/>
      <point x="496" y="215" type="curve" smooth="yes"/>
      <point x="496" y="360"/>
      <point x="376" y="402"/>
      <point x="282" y="447" type="curve" smooth="yes"/>
      <point x="223" y="476"/>
      <point x="174" y="506"/>
      <point x="174" y="564" type="curve" smooth="yes"/>
      <point x="174" y="621"/>
      <point x="225" y="648"/>
      <point x="277" y="648" type="curve" smooth="yes"/>
      <point x="324" y="648"/>
      <point x="379" y="630"/>
      <point x="415" y="598" type="curve"/>
      <point x="484" y="684" type="line"/>
      <point x="427" y="723"/>
      <point x="352" y="744"/>
    </contour>
  </outline>
</glyph>
<glyph name="U" format="2">
  <advance width="707"/>
  <unicode hex="0055"/>
  <note>
U
</note>
  <anchor x="362" y="0" name="bottom"/>
  <anchor x="415" y="0" name="ogonek"/>
  <anchor x="366" y="732" name="top"/>
  <anchor x="437" y="748" name="topright"/>
  <outline>
    <contour>
      <point x="209" y="732" type="line"/>
      <point x="52" y="732" type="line"/>
      <point x="68" y="672" type="line"/>
      <point x="68" y="278" type="line" smooth="yes"/>
      <point x="68" y="92"/>
      <point x="170" y="-11"/>
      <point x="356" y="-11" type="curve" smooth="yes"/>
      <point x="519" y="-11"/>
      <point x="644" y="68"/>
      <point x="644" y="278" type="curve" smooth="yes"/>
      <point x="644" y="732" type="line"/>
      <point x="531" y="732" type="line"/>
      <point x="531" y="245" type="line" smooth="yes"/>
      <point x="531" y="145"/>
      <point x="469" y="84"/>
      <point x="370" y="84" type="curve" smooth="yes"/>
      <point x="273" y="84"/>
      <point x="209" y="147"/>
      <point x="209" y="245" type="curve" smooth="yes"/>
    </contour>
  </outline>
</glyph>
<glyph name="V" format="2">
  <advance width="603"/>
  <unicode hex="0056"/>
  <note>
V
</note>
  <outline>
    <contour>
      <point x="146" y="731" type="line"/>
      <point x="0" y="731" type="line"/>
      <point x="252" y="-2" type="line"/>
      <point x="350" y="-2" type="line"/>
      <point x="603" y="731" type="line"/>
      <point x="492" y="731" type="line"/>
      <point x="357" y="336" type="line" smooth="yes"/>
      <point x="341" y="291"/>
      <point x="328" y="246"/>
      <point x="318" y="199" type="curve"/>
      <point x="310" y="237"/>
      <point x="301" y="276"/>
      <point x="289" y="313" type="curve" smooth="yes"/>
    </contour>
  </outline>
</glyph>
<glyph name="X" format="2">
  <advance width="585"/>
  <unicode hex="0058"/>
  <note>
X
</note>
  <outline>
    <contour>
      <point x="161" y="732" type="line"/>
      <point x="2" y="732" type="line"/>
      <point x="437" y="0" type="line"/>
      <point x="597" y="0" type="line"/>
    </contour>
    <contour>
      <point x="430" y="732" type="line"/>
      <point x="-12" y="0" type="line"/>
      <point x="127" y="0" type="line"/>
      <point x="569" y="732" type="line"/>
    </contour>
  </outline>
</glyph>
<glyph name="Y" format="2">
  <advance width="584"/>
  <unicode hex="0059"/>
  <note>
Y
</note>
  <anchor x="298" y="0" name="bottom"/>
  <anchor x="300" y="732" name="top"/>
  <outline>
    <contour>
      <point x="158" y="732" type="line"/>
      <point x="10" y="732" type="line"/>
      <point x="224" y="333" type="line"/>
      <point x="224" y="0" type="line"/>
      <point x="357" y="0" type="line"/>
      <point x="357" y="333" type="line"/>
      <point x="574" y="732" type="line"/>
      <point x="454" y="732" type="line"/>
      <point x="304" y="460" type="line"/>
    </contour>
  </outline>
</glyph>
<glyph name="Z" format="2">
  <advance width="571"/>
  <unicode hex="005A"/>
  <note>
Z
</note>
  <anchor x="286" y="732" name="top"/>
  <outline>
    <contour>
      <point x="37" y="732" type="line"/>
      <point x="37" y="634" type="line"/>
      <point x="364" y="634" type="line"/>
      <point x="13" y="82" type="line"/>
      <point x="13" y="0" type="line"/>
      <point x="546" y="0" type="line"/>
      <point x="558" y="99" type="line"/>
      <point x="182" y="99" type="line"/>
      <point x="540" y="659" type="line"/>
      <point x="540" y="732" type="line"/>
    </contour>
  </outline>
</glyph>
<glyph name="b" format="2">
  <advance width="558"/>
  <unicode hex="0062"/>
  <note>
b
</note>
  <outline>
    <contour>
      <point x="327" y="508" type="curve" smooth="yes"/>
      <point x="272" y="508"/>
      <point x="228" y="493"/>
      <point x="186" y="457" type="curve"/>
      <point x="186" y="468"/>
      <point x="188" y="486"/>
      <point x="188" y="526" type="curve" smooth="yes"/>
      <point x="188" y="768" type="line"/>
      <point x="54" y="768" type="line"/>
      <point x="68" y="713" type="line"/>
      <point x="68" y="65" type="line" smooth="yes"/>
      <point x="68" y="43"/>
      <point x="66" y="21"/>
      <point x="64" y="-1" type="curve"/>
      <point x="126" y="-1" type="line"/>
      <point x="147" y="57" type="line"/>
      <point x="186" y="9"/>
      <point x="234" y="-12"/>
      <point x="295" y="-12" type="curve" smooth="yes"/>
      <point x="445" y="-12"/>
      <point x="530" y="111"/>
      <point x="530" y="251" type="curve" smooth="yes"/>
      <point x="530" y="370"/>
      <point x="462" y="508"/>
    </contour>
    <contour>
      <point x="286" y="416" type="curve" smooth="yes"/>
      <point x="370" y="416"/>
      <point x="399" y="312"/>
      <point x="399" y="245" type="curve" smooth="yes"/>
      <point x="399" y="179"/>
      <point x="378" y="70"/>
      <point x="292" y="70" type="curve" smooth="yes"/>
      <point x="214" y="70"/>
      <point x="188" y="138"/>
      <point x="188" y="205" type="curve" smooth="yes"/>
      <point x="188" y="368" type="line"/>
      <point x="212" y="395"/>
      <point x="249" y="416"/>
    </contour>
  </outline>
</glyph>
<glyph name="c" format="2">
  <advance width="450"/>
  <unicode hex="0063"/>
  <note>
c
</note>
  <anchor x="259" y="0" name="bottom"/>
  <anchor x="262" y="497" name="top"/>
  <outline>
    <contour>
      <point x="283" y="510" type="curve" smooth="yes"/>
      <point x="127" y="510"/>
      <point x="26" y="404"/>
      <point x="26" y="249" type="curve" smooth="yes"/>
      <point x="26" y="96"/>
      <point x="111" y="-12"/>
      <point x="269" y="-12" type="curve" smooth="yes"/>
      <point x="334" y="-12"/>
      <point x="376" y="4"/>
      <point x="432" y="35" type="curve"/>
      <point x="401" y="107" type="line"/>
      <point x="360" y="83"/>
      <point x="325" y="72"/>
      <point x="290" y="72" type="curve" smooth="yes"/>
      <point x="207" y="72"/>
      <point x="158" y="138"/>
      <point x="158" y="251" type="curve" smooth="yes"/>
      <point x="158" y="320"/>
      <point x="186" y="425"/>
      <point x="272" y="425" type="curve" smooth="yes"/>
      <point x="314" y="425"/>
      <point x="342" y="410"/>
      <point x="374" y="386" type="curve"/>
      <point x="434" y="462" type="line"/>
      <point x="394" y="491"/>
      <point x="332" y="510"/>
    </contour>
  </outline>
</glyph>
<glyph name="e" format="2">
  <advance width="494"/>
  <unicode hex="0065"/>
  <note>
e
</note>
  <anchor x="259" y="0" name="bottom"/>
  <anchor x="324" y="0" name="ogonek"/>
  <anchor x="265" y="497" name="top"/>
  <outline>
    <contour>
      <point x="265" y="511" type="curve" smooth="yes"/>
      <point x="115" y="511"/>
      <point x="26" y="385"/>
      <point x="26" y="245" type="curve" smooth="yes"/>
      <point x="26" y="91"/>
      <point x="120" y="-11"/>
      <point x="276" y="-11" type="curve" smooth="yes"/>
      <point x="331" y="-11"/>
      <point x="408" y="6"/>
      <point x="454" y="42" type="curve"/>
      <point x="422" y="110" type="line"/>
      <point x="374" y="82"/>
      <point x="329" y="69"/>
      <point x="290" y="69" type="curve" smooth="yes"/>
      <point x="208" y="69"/>
      <point x="153" y="127"/>
      <point x="153" y="234" type="curve"/>
      <point x="457" y="234" type="line"/>
      <point x="463" y="256"/>
      <point x="466" y="280"/>
      <point x="466" y="302" type="curve" smooth="yes"/>
      <point x="466" y="409"/>
      <point x="403" y="511"/>
    </contour>
    <contour>
      <point x="260" y="429" type="curve" smooth="yes"/>
      <point x="320" y="429"/>
      <point x="351" y="371"/>
      <point x="341" y="313" type="curve"/>
      <point x="156" y="313" type="line"/>
      <point x="159" y="365"/>
      <point x="194" y="429"/>
    </contour>
  </outline>
</glyph>
<glyph name="h" format="2">
  <advance width="547"/>
  <unicode hex="0068"/>
  <note>
h
</note>
  <anchor x="276" y="0" name="bottom"/>
  <anchor x="177" y="607" name="center"/>
  <anchor x="130" y="732" name="top"/>
  <outline>
    <contour>
      <point x="189" y="769" type="line"/>
      <point x="58" y="769" type="line"/>
      <point x="70" y="715" type="line"/>
      <point x="70" y="0" type="line"/>
      <point x="189" y="0" type="line"/>
      <point x="189" y="361" type="line"/>
      <point x="210" y="384"/>
      <point x="267" y="416"/>
      <point x="297" y="416" type="curve" smooth="yes"/>
      <point x="355" y="416"/>
      <point x="360" y="370"/>
      <point x="360" y="324" type="curve" smooth="yes"/>
      <point x="360" y="0" type="line"/>
      <point x="481" y="0" type="line"/>
      <point x="481" y="336" type="line" smooth="yes"/>
      <point x="481" y="440"/>
      <point x="448" y="511"/>
      <point x="333" y="511" type="curve" smooth="yes"/>
      <point x="281" y="511"/>
      <point x="228" y="482"/>
      <point x="189" y="450" type="curve"/>
    </contour>
  </outline>
</glyph>
<glyph name="j" format="2">
  <advance width="251"/>
  <unicode hex="006A"/>
  <note>
j
</note>
  <outline>
    <contour>
      <point x="201" y="678" type="curve" smooth="yes"/>
      <point x="201" y="720"/>
      <point x="167" y="754"/>
      <point x="125" y="754" type="curve" smooth="yes"/>
      <point x="83" y="754"/>
      <point x="48" y="720"/>
      <point x="48" y="678" type="curve" smooth="yes"/>
      <point x="48" y="636"/>
      <point x="83" y="601"/>
      <point x="125" y="601" type="curve" smooth="yes"/>
      <point x="167" y="601"/>
      <point x="201" y="636"/>
    </contour>
    <contour>
      <point x="185" y="497" type="line"/>
      <point x="53" y="497" type="line"/>
      <point x="65" y="444" type="line"/>
      <point x="65" y="40" type="line" smooth="yes"/>
      <point x="65" y="-36"/>
      <point x="65" y="-128"/>
      <point x="-11" y="-169" type="curve"/>
      <point x="11" y="-224" type="line"/>
      <point x="166" y="-206"/>
      <point x="185" y="-63"/>
      <point x="185" y="66" type="curve" smooth="yes"/>
    </contour>
  </outline>
</glyph>
<glyph name="k" format="2">
  <advance width="464"/>
  <unicode hex="006B"/>
  <note>
k
</note>
  <anchor x="264" y="0" name="bottom"/>
  <outline>
    <contour>
      <point x="191" y="769" type="line"/>
      <point x="55" y="769" type="line"/>
      <point x="68" y="715" type="line"/>
      <point x="68" y="0" type="line"/>
      <point x="191" y="0" type="line"/>
      <point x="191" y="255" type="line"/>
      <point x="356" y="0" type="line"/>
      <point x="491" y="0" type="line"/>
      <point x="301" y="287" type="line"/>
      <point x="462" y="497" type="line"/>
      <point x="345" y="497" type="line"/>
      <point x="191" y="292" type="line"/>
    </contour>
  </outline>
</glyph>
<glyph name="l" format="2">
  <advance width="251"/>
  <unicode hex="006C"/>
  <note>
l
</note>
  <anchor x="126" y="0" name="bottom"/>
  <anchor x="126" y="371" name="center"/>
  <anchor x="122" y="732" name="top"/>
  <anchor x="48" y="530" name="topright"/>
  <outline>
    <contour>
      <point x="185" y="769" type="line"/>
      <point x="52" y="769" type="line"/>
      <point x="63" y="715" type="line"/>
      <point x="63" y="0" type="line"/>
      <point x="185" y="0" type="line"/>
    </contour>
  </outline>
</glyph>
<glyph name="p" format="2">
  <advance width="556"/>
  <unicode hex="0070"/>
  <note>
p
</note>
  <outline>
    <contour>
      <point x="163" y="508" type="curve"/>
      <point x="38" y="493" type="line"/>
      <point x="60" y="461"/>
      <point x="67" y="394"/>
      <point x="67" y="357" type="curve" smooth="yes"/>
      <point x="67" y="-217" type="line"/>
      <point x="202" y="-217" type="line"/>
      <point x="188" y="-162" type="line"/>
      <point x="188" y="-36" type="line" smooth="yes"/>
      <point x="188" y="-21"/>
      <point x="188" y="3"/>
      <point x="186" y="22" type="curve"/>
      <point x="214" y="0"/>
      <point x="263" y="-10"/>
      <point x="297" y="-10" type="curve" smooth="yes"/>
      <point x="451" y="-10"/>
      <point x="530" y="110"/>
      <point x="530" y="254" type="curve" smooth="yes"/>
      <point x="530" y="383"/>
      <point x="459" y="511"/>
      <point x="316" y="511" type="curve" smooth="yes"/>
      <point x="269" y="511"/>
      <point x="207" y="488"/>
      <point x="178" y="448" type="curve"/>
      <point x="175" y="468"/>
      <point x="170" y="489"/>
    </contour>
    <contour>
      <point x="283" y="422" type="curve" smooth="yes"/>
      <point x="372" y="422"/>
      <point x="399" y="321"/>
      <point x="399" y="249" type="curve" smooth="yes"/>
      <point x="399" y="180"/>
      <point x="375" y="75"/>
      <point x="287" y="75" type="curve" smooth="yes"/>
      <point x="210" y="75"/>
      <point x="188" y="141"/>
      <point x="188" y="207" type="curve" smooth="yes"/>
      <point x="188" y="370" type="line"/>
      <point x="208" y="400"/>
      <point x="247" y="422"/>
    </contour>
  </outline>
</glyph>
<glyph name="r" format="2">
  <advance width="349"/>
  <unicode hex="0072"/>
  <note>
r
</note>
  <anchor x="129" y="0" name="bottom"/>
  <anchor x="180" y="497" name="top"/>
  <outline>
    <contour>
      <point x="163" y="507" type="curve"/>
      <point x="36" y="497" type="line"/>
      <point x="60" y="465"/>
      <point x="68" y="401"/>
      <point x="68" y="363" type="curve" smooth="yes"/>
      <point x="68" y="0" type="line"/>
      <point x="188" y="0" type="line"/>
      <point x="188" y="296" type="line"/>
      <point x="229" y="358"/>
      <point x="273" y="388"/>
      <point x="332" y="388" type="curve"/>
      <point x="352" y="507" type="line"/>
      <point x="285" y="507"/>
      <point x="220" y="458"/>
      <point x="187" y="402" type="curve"/>
      <point x="186" y="436"/>
      <point x="177" y="476"/>
    </contour>
  </outline>
</glyph>
<glyph name="s" format="2">
  <advance width="430"/>
  <unicode hex="0073"/>
  <note>
s
</note>
  <anchor x="223" y="0" name="bottom"/>
  <anchor x="216" y="497" name="top"/>
  <outline>
    <contour>
      <point x="240" y="510" type="curve" smooth="yes"/>
      <point x="146" y="510"/>
      <point x="48" y="460"/>
      <point x="48" y="354" type="curve" smooth="yes"/>
      <point x="48" y="260"/>
      <point x="117" y="235"/>
      <point x="179" y="212" type="curve" smooth="yes"/>
      <point x="225" y="195"/>
      <point x="263" y="178"/>
      <point x="263" y="135" type="curve" smooth="yes"/>
      <point x="263" y="91"/>
      <point x="228" y="71"/>
      <point x="188" y="71" type="curve" smooth="yes"/>
      <point x="147" y="71"/>
      <point x="109" y="91"/>
      <point x="75" y="111" type="curve"/>
      <point x="32" y="29" type="line"/>
      <point x="79" y="3"/>
      <point x="145" y="-14"/>
      <point x="198" y="-14" type="curve" smooth="yes"/>
      <point x="297" y="-14"/>
      <point x="393" y="48"/>
      <point x="393" y="155" type="curve" smooth="yes"/>
      <point x="393" y="264"/>
      <point x="307" y="287"/>
      <point x="243" y="312" type="curve" smooth="yes"/>
      <point x="206" y="327"/>
      <point x="178" y="342"/>
      <point x="178" y="376" type="curve" smooth="yes"/>
      <point x="178" y="414"/>
      <point x="213" y="429"/>
      <point x="246" y="429" type="curve" smooth="yes"/>
      <point x="280" y="429"/>
      <point x="318" y="416"/>
      <point x="345" y="395" type="curve"/>
      <point x="387" y="479" type="line"/>
      <point x="345" y="500"/>
      <point x="286" y="510"/>
    </contour>
  </outline>
</glyph>
<glyph name="u" format="2">
  <advance width="553"/>
  <unicode hex="0075"/>
  <note>
u
</note>
  <anchor x="275" y="0" name="bottom"/>
  <anchor x="493" y="5" name="ogonek"/>
  <anchor x="273" y="497" name="top"/>
  <anchor x="304" y="506" name="topright"/>
  <outline>
    <contour>
      <point x="188" y="497" type="line"/>
      <point x="55" y="497" type="line"/>
      <point x="66" y="443" type="line"/>
      <point x="66" y="161" type="line" smooth="yes"/>
      <point x="66" y="57"/>
      <point x="100" y="-14"/>
      <point x="215" y="-14" type="curve" smooth="yes"/>
      <point x="277" y="-14"/>
      <point x="336" y="15"/>
      <point x="379" y="59" type="curve"/>
      <point x="389" y="9"/>
      <point x="426" y="-8"/>
      <point x="468" y="-8" type="curve" smooth="yes"/>
      <point x="504" y="-8"/>
      <point x="543" y="5"/>
      <point x="571" y="19" type="curve"/>
      <point x="552" y="87" type="line"/>
      <point x="537" y="82"/>
      <point x="524" y="79"/>
      <point x="514" y="79" type="curve" smooth="yes"/>
      <point x="493" y="79"/>
      <point x="481" y="92"/>
      <point x="481" y="129" type="curve" smooth="yes"/>
      <point x="481" y="497" type="line"/>
      <point x="347" y="497" type="line"/>
      <point x="348" y="492"/>
      <point x="359" y="445"/>
      <point x="359" y="443" type="curve" smooth="yes"/>
      <point x="359" y="179" type="line" smooth="yes"/>
      <point x="359" y="120"/>
      <point x="309" y="82"/>
      <point x="253" y="82" type="curve" smooth="yes"/>
      <point x="195" y="82"/>
      <point x="188" y="136"/>
      <point x="188" y="182" type="curve" smooth="yes"/>
    </contour>
  </outline>
</glyph>
<glyph name="v" format="2">
  <advance width="455"/>
  <unicode hex="0076"/>
  <note>
v
</note>
  <outline>
    <contour>
      <point x="127" y="497" type="line"/>
      <point x="-2" y="497" type="line"/>
      <point x="173" y="-4" type="line"/>
      <point x="281" y="-4" type="line"/>
      <point x="457" y="497" type="line"/>
      <point x="349" y="497" type="line"/>
      <point x="256" y="235" type="line" smooth="yes"/>
      <point x="247" y="208"/>
      <point x="244" y="179"/>
      <point x="239" y="151" type="curve"/>
      <point x="233" y="180"/>
      <point x="228" y="207"/>
      <point x="218" y="235" type="curve" smooth="yes"/>
    </contour>
  </outline>
</glyph>
<glyph name="w" format="2">
  <advance width="658"/>
  <unicode hex="0077"/>
  <note>
w
</note>
  <anchor x="343" y="497" name="top"/>
  <outline>
    <contour>
      <point x="114" y="497" type="line"/>
      <point x="-12" y="497" type="line"/>
      <point x="136" y="-4" type="line"/>
      <point x="231" y="-4" type="line"/>
      <point x="266" y="107"/>
      <point x="308" y="214"/>
      <point x="327" y="329" type="curve"/>
      <point x="346" y="215"/>
      <point x="386" y="107"/>
      <point x="419" y="-4" type="curve"/>
      <point x="512" y="-4" type="line"/>
      <point x="670" y="497" type="line"/>
      <point x="567" y="497" type="line"/>
      <point x="496" y="272" type="line" smooth="yes"/>
      <point x="486" y="239"/>
      <point x="484" y="208"/>
      <point x="480" y="174" type="curve"/>
      <point x="475" y="208"/>
      <point x="474" y="239"/>
      <point x="464" y="272" type="curve" smooth="yes"/>
      <point x="397" y="497" type="line"/>
      <point x="286" y="497" type="line"/>
      <point x="214" y="272" type="line" smooth="yes"/>
      <point x="203" y="239"/>
      <point x="202" y="207"/>
      <point x="197" y="173" type="curve"/>
      <point x="193" y="207"/>
      <point x="191" y="239"/>
      <point x="181" y="272" type="curve" smooth="yes"/>
    </contour>
  </outline>
</glyph>
<glyph name="bar" format="2">
  <advance width="235"/>
  <unicode hex="007C"/>
  <note>
bar
</note>
  <outline>
    <contour>
      <point x="70" y="745" type="line"/>
      <point x="70" y="-116" type="line"/>
      <point x="168" y="-116" type="line"/>
      <point x="168" y="745" type="line"/>
    </contour>
  </outline>
</glyph>
<glyph name="cent" format="2">
  <advance width="490"/>
  <unicode hex="00A2"/>
  <note>
cent
</note>
  <outline>
    <contour>
      <point x="289" y="486" type="curve" smooth="yes"/>
      <point x="147" y="486"/>
      <point x="55" y="390"/>
      <point x="55" y="249" type="curve" smooth="yes"/>
      <point x="55" y="110"/>
      <point x="132" y="12"/>
      <point x="276" y="12" type="curve" smooth="yes"/>
      <point x="339" y="12"/>
      <point x="378" y="26"/>
      <point x="433" y="54" type="curve"/>
      <point x="397" y="128" type="line"/>
      <point x="358" y="105"/>
      <point x="323" y="94"/>
      <point x="293" y="94" type="curve" smooth="yes"/>
      <point x="224" y="94"/>
      <point x="180" y="150"/>
      <point x="180" y="251" type="curve" smooth="yes"/>
      <point x="180" y="314"/>
      <point x="200" y="404"/>
      <point x="279" y="404" type="curve" smooth="yes"/>
      <point x="317" y="404"/>
      <point x="342" y="390"/>
      <point x="371" y="369" type="curve"/>
      <point x="426" y="443" type="line"/>
      <point x="389" y="469"/>
      <point x="333" y="486"/>
    </contour>
    <contour>
      <point x="271" y="43" type="line"/>
      <point x="207" y="43" type="line"/>
      <point x="163" y="-128" type="line"/>
      <point x="255" y="-128" type="line"/>
    </contour>
    <contour>
      <point x="241" y="462" type="line"/>
      <point x="309" y="462" type="line"/>
      <point x="348" y="622" type="line"/>
      <point x="254" y="622" type="line"/>
    </contour>
  </outline>
</glyph>
<glyph name="sterling" format="2">
  <advance width="581"/>
  <unicode hex="00A3"/>
  <note>
sterling
</note>
  <outline>
    <contour>
      <point x="34" y="100" type="line"/>
      <point x="34" y="0" type="line"/>
      <point x="555" y="0" type="line"/>
      <point x="555" y="100" type="line"/>
      <point x="262" y="100" type="line"/>
      <point x="262" y="514" type="line"/>
      <point x="262" y="568"/>
      <point x="290" y="610"/>
      <point x="347" y="610" type="curve" smooth="yes"/>
      <point x="393" y="610"/>
      <point x="426" y="575"/>
      <point x="446" y="537" type="curve"/>
      <point x="544" y="591" type="line"/>
      <point x="497" y="665"/>
      <point x="437" y="706"/>
      <point x="348" y="706" type="curve" smooth="yes"/>
      <point x="221" y="706"/>
      <point x="127" y="633"/>
      <point x="127" y="500" type="curve"/>
      <point x="127" y="100" type="line"/>
    </contour>
    <contour>
      <point x="50" y="284" type="line"/>
      <point x="412" y="284" type="line"/>
      <point x="422" y="366" type="line"/>
      <point x="60" y="366" type="line"/>
    </contour>
  </outline>
</glyph>
<glyph name="currency" format="2">
  <advance width="536"/>
  <unicode hex="00A4"/>
  <note>
currency
</note>
  <outline>
    <contour>
      <point x="266" y="463" type="curve" smooth="yes"/>
      <point x="226" y="463"/>
      <point x="189" y="451"/>
      <point x="158" y="429" type="curve"/>
      <point x="106" y="482" type="line"/>
      <point x="37" y="413" type="line"/>
      <point x="93" y="356" type="line"/>
      <point x="77" y="325"/>
      <point x="68" y="290"/>
      <point x="68" y="252" type="curve" smooth="yes"/>
      <point x="68" y="214"/>
      <point x="77" y="179"/>
      <point x="93" y="148" type="curve"/>
      <point x="37" y="93" type="line"/>
      <point x="106" y="24" type="line"/>
      <point x="157" y="75" type="line"/>
      <point x="188" y="53"/>
      <point x="226" y="41"/>
      <point x="266" y="41" type="curve" smooth="yes"/>
      <point x="306" y="41"/>
      <point x="344" y="53"/>
      <point x="375" y="75" type="curve"/>
      <point x="427" y="24" type="line"/>
      <point x="496" y="93" type="line"/>
      <point x="439" y="149" type="line"/>
      <point x="455" y="179"/>
      <point x="465" y="214"/>
      <point x="465" y="252" type="curve" smooth="yes"/>
      <point x="465" y="289"/>
      <point x="455" y="325"/>
      <point x="439" y="356" type="curve"/>
      <point x="496" y="413" type="line"/>
      <point x="427" y="482" type="line"/>
      <point x="374" y="429" type="line"/>
      <point x="343" y="451"/>
      <point x="306" y="463"/>
    </contour>
    <contour>
      <point x="267" y="379" type="curve" smooth="yes"/>
      <point x="331" y="379"/>
      <point x="370" y="322"/>
      <point x="370" y="254" type="curve" smooth="yes"/>
      <point x="370" y="163"/>
      <point x="316" y="125"/>
      <point x="266" y="125" type="curve" smooth="yes"/>
      <point x="220" y="125"/>
      <point x="163" y="165"/>
      <point x="163" y="252" type="curve" smooth="yes"/>
      <point x="163" y="325"/>
      <point x="205" y="379"/>
    </contour>
  </outline>
</glyph>
<glyph name="brokenbar" format="2">
  <advance width="238"/>
  <unicode hex="00A6"/>
  <note>
brokenbar
</note>
  <outline>
    <contour>
      <point x="70" y="745" type="line"/>
      <point x="70" y="392" type="line"/>
      <point x="168" y="392" type="line"/>
      <point x="168" y="745" type="line"/>
    </contour>
    <contour>
      <point x="70" y="237" type="line"/>
      <point x="70" y="-116" type="line"/>
      <point x="168" y="-116" type="line"/>
      <point x="168" y="237" type="line"/>
    </contour>
  </outline>
</glyph>
<glyph name="dieresis" format="2">
  <advance width="297"/>
  <unicode hex="00A8"/>
  <note>
dieresis
</note>
  <anchor x="149" y="497" name="_top"/>
  <outline>
    <contour>
      <point x="126" y="652" type="curve" smooth="yes"/>
      <point x="126" y="687"/>
      <point x="98" y="715"/>
      <point x="63" y="715" type="curve" smooth="yes"/>
      <point x="28" y="715"/>
      <point x="0" y="687"/>
      <point x="0" y="652" type="curve" smooth="yes"/>
      <point x="0" y="617"/>
      <point x="28" y="589"/>
      <point x="63" y="589" type="curve" smooth="yes"/>
      <point x="98" y="589"/>
      <point x="126" y="617"/>
    </contour>
    <contour>
      <point x="297" y="652" type="curve" smooth="yes"/>
      <point x="297" y="687"/>
      <point x="268" y="715"/>
      <point x="233" y="715" type="curve" smooth="yes"/>
      <point x="199" y="715"/>
      <point x="170" y="686"/>
      <point x="170" y="652" type="curve" smooth="yes"/>
      <point x="170" y="618"/>
      <point x="199" y="589"/>
      <point x="233" y="589" type="curve" smooth="yes"/>
      <point x="268" y="589"/>
      <point x="297" y="617"/>
    </contour>
  </outline>
</glyph>
<glyph name="copyright" format="2">
  <advance width="638"/>
  <unicode hex="00A9"/>
  <note>
copyright
</note>
  <outline>
    <contour>
      <point x="596" y="250" type="curve" smooth="yes"/>
      <point x="596" y="402"/>
      <point x="471" y="527"/>
      <point x="319" y="527" type="curve" smooth="yes"/>
      <point x="166" y="527"/>
      <point x="42" y="403"/>
      <point x="42" y="250" type="curve" smooth="yes"/>
      <point x="42" y="97"/>
      <point x="166" y="-27"/>
      <point x="319" y="-27" type="curve" smooth="yes"/>
      <point x="471" y="-27"/>
      <point x="596" y="98"/>
    </contour>
    <contour>
      <point x="556" y="250" type="curve" smooth="yes"/>
      <point x="556" y="119"/>
      <point x="450" y="13"/>
      <point x="319" y="13" type="curve" smooth="yes"/>
      <point x="188" y="13"/>
      <point x="82" y="119"/>
      <point x="82" y="250" type="curve" smooth="yes"/>
      <point x="82" y="381"/>
      <point x="188" y="487"/>
      <point x="319" y="487" type="curve" smooth="yes"/>
      <point x="450" y="487"/>
      <point x="556" y="381"/>
    </contour>
    <contour>
      <point x="444" y="112" type="curve"/>
      <point x="406" y="176" type="line"/>
      <point x="388" y="157"/>
      <point x="367" y="143"/>
      <point x="340" y="143" type="curve" smooth="yes"/>
      <point x="281" y="143"/>
      <point x="263" y="203"/>
      <point x="263" y="251" type="curve" smooth="yes"/>
      <point x="263" y="292"/>
      <point x="279" y="357"/>
      <point x="330" y="357" type="curve" smooth="yes"/>
      <point x="357" y="357"/>
      <point x="375" y="346"/>
      <point x="395" y="330" type="curve"/>
      <point x="439" y="386" type="line"/>
      <point x="412" y="406"/>
      <point x="370" y="421"/>
      <point x="337" y="421" type="curve" smooth="yes"/>
      <point x="236" y="421"/>
      <point x="170" y="351"/>
      <point x="170" y="250" type="curve" smooth="yes"/>
      <point x="170" y="151"/>
      <point x="225" y="80"/>
      <point x="328" y="80" type="curve" smooth="yes"/>
      <point x="376" y="80"/>
      <point x="403" y="91"/>
    </contour>
  </outline>
</glyph>
<glyph name="ordfeminine" format="2">
  <advance width="315"/>
  <unicode hex="00AA"/>
  <note>
ordfeminine
</note>
  <outline>
    <contour>
      <point x="326" y="406" type="curve"/>
      <point x="312" y="450" type="line"/>
      <point x="302" y="447"/>
      <point x="294" y="445"/>
      <point x="287" y="445" type="curve" smooth="yes"/>
      <point x="271" y="445"/>
      <point x="262" y="455"/>
      <point x="262" y="480" type="curve" smooth="yes"/>
      <point x="262" y="622" type="line" smooth="yes"/>
      <point x="262" y="699"/>
      <point x="215" y="729"/>
      <point x="144" y="729" type="curve" smooth="yes"/>
      <point x="97" y="729"/>
      <point x="51" y="715"/>
      <point x="11" y="688" type="curve"/>
      <point x="44" y="636" type="line"/>
      <point x="67" y="654"/>
      <point x="102" y="674"/>
      <point x="132" y="674" type="curve" smooth="yes"/>
      <point x="165" y="674"/>
      <point x="185" y="663"/>
      <point x="185" y="628" type="curve" smooth="yes"/>
      <point x="185" y="591" type="line"/>
      <point x="102" y="591"/>
      <point x="-3" y="571"/>
      <point x="-3" y="476" type="curve" smooth="yes"/>
      <point x="-3" y="422"/>
      <point x="38" y="386"/>
      <point x="96" y="386" type="curve" smooth="yes"/>
      <point x="136" y="386"/>
      <point x="168" y="401"/>
      <point x="198" y="432" type="curve"/>
      <point x="205" y="401"/>
      <point x="227" y="388"/>
      <point x="257" y="388" type="curve" smooth="yes"/>
      <point x="277" y="388"/>
      <point x="301" y="395"/>
    </contour>
    <contour>
      <point x="185" y="537" type="curve"/>
      <point x="185" y="516" type="line" smooth="yes"/>
      <point x="185" y="478"/>
      <point x="154" y="447"/>
      <point x="117" y="447" type="curve" smooth="yes"/>
      <point x="92" y="447"/>
      <point x="79" y="463"/>
      <point x="79" y="484" type="curve" smooth="yes"/>
      <point x="79" y="533"/>
      <point x="148" y="537"/>
    </contour>
    <contour>
      <point x="20" y="330" type="line"/>
      <point x="20" y="272" type="line"/>
      <point x="279" y="272" type="line"/>
      <point x="279" y="330" type="line"/>
    </contour>
  </outline>
</glyph>
<glyph name="registered" format="2">
  <advance width="465"/>
  <unicode hex="00AE"/>
  <note>
registered
</note>
  <outline>
    <contour>
      <point x="443" y="610" type="curve" smooth="yes"/>
      <point x="443" y="726"/>
      <point x="348" y="821"/>
      <point x="232" y="821" type="curve" smooth="yes"/>
      <point x="116" y="821"/>
      <point x="22" y="726"/>
      <point x="22" y="610" type="curve" smooth="yes"/>
      <point x="22" y="494"/>
      <point x="116" y="399"/>
      <point x="232" y="399" type="curve" smooth="yes"/>
      <point x="348" y="399"/>
      <point x="443" y="494"/>
    </contour>
    <contour>
      <point x="408" y="610" type="curve" smooth="yes"/>
      <point x="408" y="513"/>
      <point x="329" y="435"/>
      <point x="232" y="435" type="curve" smooth="yes"/>
      <point x="136" y="435"/>
      <point x="57" y="513"/>
      <point x="57" y="610" type="curve" smooth="yes"/>
      <point x="57" y="707"/>
      <point x="136" y="785"/>
      <point x="232" y="785" type="curve" smooth="yes"/>
      <point x="329" y="785"/>
      <point x="408" y="706"/>
    </contour>
    <contour>
      <point x="147" y="732" type="line"/>
      <point x="147" y="497" type="line"/>
      <point x="207" y="497" type="line"/>
      <point x="207" y="593" type="line"/>
      <point x="217" y="593" type="line"/>
      <point x="283" y="497" type="line"/>
      <point x="354" y="497" type="line"/>
      <point x="280" y="604" type="line"/>
      <point x="303" y="614"/>
      <point x="323" y="635"/>
      <point x="323" y="663" type="curve" smooth="yes"/>
      <point x="323" y="718"/>
      <point x="283" y="732"/>
      <point x="240" y="732" type="curve" smooth="yes"/>
    </contour>
    <contour>
      <point x="207" y="685" type="line"/>
      <point x="233" y="685" type="line" smooth="yes"/>
      <point x="252" y="685"/>
      <point x="263" y="678"/>
      <point x="263" y="665" type="curve" smooth="yes"/>
      <point x="263" y="647"/>
      <point x="250" y="640"/>
      <point x="226" y="640" type="curve" smooth="yes"/>
      <point x="207" y="640" type="line"/>
    </contour>
  </outline>
</glyph>
<glyph name="degree" format="2">
  <advance width="387"/>
  <unicode hex="00B0"/>
  <note>
degree
</note>
  <outline>
    <contour>
      <point x="193" y="738" type="curve" smooth="yes"/>
      <point x="113" y="738"/>
      <point x="48" y="673"/>
      <point x="48" y="593" type="curve" smooth="yes"/>
      <point x="48" y="513"/>
      <point x="113" y="448"/>
      <point x="193" y="448" type="curve" smooth="yes"/>
      <point x="274" y="448"/>
      <point x="339" y="512"/>
      <point x="339" y="593" type="curve" smooth="yes"/>
      <point x="339" y="674"/>
      <point x="273" y="738"/>
    </contour>
    <contour>
      <point x="193" y="674" type="curve" smooth="yes"/>
      <point x="237" y="674"/>
      <point x="272" y="637"/>
      <point x="272" y="593" type="curve" smooth="yes"/>
      <point x="272" y="549"/>
      <point x="238" y="512"/>
      <point x="193" y="512" type="curve" smooth="yes"/>
      <point x="148" y="512"/>
      <point x="115" y="549"/>
      <point x="115" y="593" type="curve" smooth="yes"/>
      <point x="115" y="637"/>
      <point x="149" y="674"/>
    </contour>
  </outline>
</glyph>
<glyph name="acute" format="2">
  <advance width="281"/>
  <unicode hex="00B4"/>
  <note>
acute
</note>
  <anchor x="83" y="497" name="_top"/>
  <outline>
    <contour>
      <point x="142" y="735" type="line"/>
      <point x="33" y="570" type="line"/>
      <point x="136" y="570" type="line"/>
      <point x="287" y="735" type="line"/>
    </contour>
  </outline>
</glyph>
<glyph name="micro" format="2">
  <advance width="549"/>
  <unicode hex="00B5"/>
  <note>
uni00B5
</note>
  <outline>
    <contour>
      <point x="574" y="19" type="curve"/>
      <point x="553" y="92" type="line"/>
      <point x="538" y="88"/>
      <point x="520" y="80"/>
      <point x="505" y="80" type="curve" smooth="yes"/>
      <point x="480" y="80"/>
      <point x="480" y="115"/>
      <point x="480" y="132" type="curve" smooth="yes"/>
      <point x="480" y="498" type="line"/>
      <point x="347" y="498" type="line"/>
      <point x="348" y="493"/>
      <point x="359" y="447"/>
      <point x="359" y="445" type="curve" smooth="yes"/>
      <point x="359" y="131" type="line"/>
      <point x="331" y="102"/>
      <point x="295" y="84"/>
      <point x="254" y="84" type="curve" smooth="yes"/>
      <point x="195" y="84"/>
      <point x="188" y="140"/>
      <point x="188" y="187" type="curve" smooth="yes"/>
      <point x="188" y="498" type="line"/>
      <point x="56" y="498" type="line"/>
      <point x="57" y="493"/>
      <point x="67" y="447"/>
      <point x="67" y="445" type="curve" smooth="yes"/>
      <point x="67" y="-186" type="line"/>
      <point x="191" y="-186" type="line"/>
      <point x="191" y="5" type="line"/>
      <point x="212" y="-5"/>
      <point x="233" y="-10"/>
      <point x="256" y="-10" type="curve" smooth="yes"/>
      <point x="303" y="-10"/>
      <point x="350" y="24"/>
      <point x="379" y="58" type="curve"/>
      <point x="388" y="20"/>
      <point x="416" y="-8"/>
      <point x="457" y="-8" type="curve" smooth="yes"/>
      <point x="495" y="-8"/>
      <point x="537" y="9"/>
    </contour>
  </outline>
</glyph>
<glyph name="paragraph" format="2">
  <advance width="520"/>
  <unicode hex="00B6"/>
  <note>
paragraph
</note>
  <outline>
    <contour>
      <point x="173" y="-108" type="curve"/>
      <point x="163" y="-154" type="line"/>
      <point x="221" y="-173"/>
      <point x="288" y="-148"/>
      <point x="307" y="-99" type="curve"/>
      <point x="375" y="-110"/>
      <point x="419" y="-57"/>
      <point x="419" y="10" type="curve" smooth="yes"/>
      <point x="419" y="649" type="line"/>
      <point x="475" y="649" type="line"/>
      <point x="475" y="718" type="line"/>
      <point x="263" y="718" type="line" smooth="yes"/>
      <point x="137" y="718"/>
      <point x="40" y="656"/>
      <point x="40" y="480" type="curve" smooth="yes"/>
      <point x="40" y="332"/>
      <point x="125" y="252"/>
      <point x="249" y="252" type="curve"/>
      <point x="249" y="-37" type="line" smooth="yes"/>
      <point x="249" y="-79"/>
      <point x="221" y="-117"/>
    </contour>
    <contour>
      <point x="314" y="649" type="line"/>
      <point x="355" y="649" type="line"/>
      <point x="355" y="20" type="line" smooth="yes"/>
      <point x="355" y="-10"/>
      <point x="352" y="-37"/>
      <point x="314" y="-37" type="curve"/>
    </contour>
  </outline>
</glyph>
<glyph name="cedilla" format="2">
  <advance width="280"/>
  <unicode hex="00B8"/>
  <note>
cedilla
</note>
  <guideline x="240" y="-220" angle="0"/>
  <guideline x="194" y="-162" angle="0"/>
  <anchor x="134" y="0" name="_bottom"/>
  <outline>
    <contour>
      <point x="111" y="9" type="line"/>
      <point x="51" y="-95" type="line"/>
      <point x="73" y="-89"/>
      <point x="91" y="-87"/>
      <point x="105" y="-87" type="curve" smooth="yes"/>
      <point x="143" y="-87"/>
      <point x="159" y="-103"/>
      <point x="159" y="-124" type="curve" smooth="yes"/>
      <point x="159" y="-150"/>
      <point x="141" y="-162"/>
      <point x="117" y="-162" type="curve" smooth="yes"/>
      <point x="97" y="-162"/>
      <point x="74" y="-154"/>
      <point x="53" y="-140" type="curve"/>
      <point x="25" y="-190" type="line"/>
      <point x="57" y="-210"/>
      <point x="95" y="-220"/>
      <point x="130" y="-220" type="curve" smooth="yes"/>
      <point x="195" y="-220"/>
      <point x="252" y="-187"/>
      <point x="252" y="-126" type="curve" smooth="yes"/>
      <point x="252" y="-75"/>
      <point x="213" y="-48"/>
      <point x="139" y="-47" type="curve"/>
      <point x="170" y="9" type="line"/>
    </contour>
  </outline>
</glyph>
<glyph name="onehalf" format="2">
  <advance width="1111"/>
  <unicode hex="00BD"/>
  <note>
onehalf
</note>
  <outline>
    <contour>
      <point x="694" y="732" type="line"/>
      <point x="323" y="0" type="line"/>
      <point x="416" y="0" type="line"/>
      <point x="788" y="732" type="line"/>
    </contour>
    <contour>
      <point x="62" y="327" type="line"/>
      <point x="62" y="248" type="line"/>
      <point x="416" y="248" type="line"/>
      <point x="416" y="327" type="line"/>
      <point x="309" y="327" type="line"/>
      <point x="309" y="734" type="line"/>
      <point x="224" y="734" type="line"/>
      <point x="45" y="665" type="line"/>
      <point x="70" y="595" type="line"/>
      <point x="195" y="630" type="line"/>
      <point x="195" y="327" type="line"/>
    </contour>
    <contour>
      <point x="699" y="51" type="curve"/>
      <point x="699" y="0" type="line"/>
      <point x="1048" y="0" type="line"/>
      <point x="1075" y="95" type="line"/>
      <point x="859" y="95" type="line" smooth="yes"/>
      <point x="859" y="95"/>
      <point x="1058" y="220"/>
      <point x="1058" y="366" type="curve" smooth="yes"/>
      <point x="1058" y="436"/>
      <point x="1008" y="497"/>
      <point x="899" y="497" type="curve" smooth="yes"/>
      <point x="784" y="497"/>
      <point x="709" y="426"/>
      <point x="709" y="426" type="curve"/>
      <point x="753" y="360" type="line"/>
      <point x="753" y="360"/>
      <point x="817" y="418"/>
      <point x="877" y="418" type="curve" smooth="yes"/>
      <point x="914" y="418"/>
      <point x="940" y="394"/>
      <point x="940" y="356" type="curve" smooth="yes"/>
      <point x="940" y="241"/>
      <point x="699" y="51"/>
    </contour>
  </outline>
</glyph>
<glyph name="questiondown" format="2">
  <advance width="431"/>
  <unicode hex="00BF"/>
  <note>
questiondown
</note>
  <outline>
    <contour>
      <point x="230" y="-224" type="curve" smooth="yes"/>
      <point x="287" y="-224"/>
      <point x="358" y="-208"/>
      <point x="403" y="-180" type="curve"/>
      <point x="357" y="-92" type="line"/>
      <point x="326" y="-113"/>
      <point x="291" y="-127"/>
      <point x="253" y="-127" type="curve" smooth="yes"/>
      <point x="201" y="-127"/>
      <point x="149" y="-96"/>
      <point x="149" y="-39" type="curve" smooth="yes"/>
      <point x="149" y="33"/>
      <point x="231" y="71"/>
      <point x="292" y="76" type="curve"/>
      <point x="292" y="281" type="line"/>
      <point x="185" y="281" type="line"/>
      <point x="185" y="147" type="line"/>
      <point x="94" y="109"/>
      <point x="20" y="56"/>
      <point x="20" y="-46" type="curve" smooth="yes"/>
      <point x="20" y="-167"/>
      <point x="123" y="-224"/>
    </contour>
    <contour>
      <point x="239" y="355" type="curve" smooth="yes"/>
      <point x="282" y="355"/>
      <point x="316" y="390"/>
      <point x="316" y="433" type="curve" smooth="yes"/>
      <point x="316" y="475"/>
      <point x="282" y="510"/>
      <point x="239" y="510" type="curve" smooth="yes"/>
      <point x="196" y="510"/>
      <point x="162" y="475"/>
      <point x="162" y="433" type="curve" smooth="yes"/>
      <point x="162" y="390"/>
      <point x="196" y="355"/>
    </contour>
  </outline>
</glyph>
<glyph name="AE" format="2">
  <advance width="924"/>
  <unicode hex="00C6"/>
  <note>
AE
</note>
  <anchor x="510" y="732" name="top"/>
  <outline>
    <contour>
      <point x="442" y="210" type="line"/>
      <point x="442" y="0" type="line"/>
      <point x="887" y="0" type="line"/>
      <point x="887" y="99" type="line"/>
      <point x="580" y="99" type="line"/>
      <point x="580" y="327" type="line"/>
      <point x="815" y="327" type="line"/>
      <point x="815" y="426" type="line"/>
      <point x="580" y="426" type="line"/>
      <point x="580" y="633" type="line"/>
      <point x="887" y="633" type="line"/>
      <point x="887" y="732" type="line"/>
      <point x="323" y="732" type="line"/>
      <point x="337" y="670" type="line"/>
      <point x="-2" y="0" type="line"/>
      <point x="120" y="0" type="line"/>
      <point x="227" y="210" type="line"/>
    </contour>
    <contour>
      <point x="278" y="308" type="line"/>
      <point x="442" y="633" type="line"/>
      <point x="442" y="308" type="line"/>
    </contour>
  </outline>
</glyph>
<glyph name="multiply" format="2">
  <advance width="534"/>
  <unicode hex="00D7"/>
  <note>
multiply
</note>
  <outline>
    <contour>
      <point x="267" y="186" type="line"/>
      <point x="412" y="42" type="line"/>
      <point x="474" y="104" type="line"/>
      <point x="329" y="248" type="line"/>
      <point x="474" y="393" type="line"/>
      <point x="412" y="455" type="line"/>
      <point x="267" y="311" type="line"/>
      <point x="122" y="455" type="line"/>
      <point x="60" y="393" type="line"/>
      <point x="205" y="248" type="line"/>
      <point x="60" y="104" type="line"/>
      <point x="122" y="42" type="line"/>
    </contour>
  </outline>
</glyph>
<glyph name="germandbls" format="2">
  <advance width="590"/>
  <unicode hex="00DF"/>
  <note>
germandbls
</note>
  <outline>
    <contour>
      <point x="0" y="416" type="line"/>
      <point x="75" y="416" type="line"/>
      <point x="75" y="0" type="line"/>
      <point x="198" y="0" type="line"/>
      <point x="198" y="465" type="line" smooth="yes"/>
      <point x="198" y="537"/>
      <point x="212" y="648"/>
      <point x="307" y="648" type="curve" smooth="yes"/>
      <point x="346" y="648"/>
      <point x="377" y="623"/>
      <point x="377" y="577" type="curve" smooth="yes"/>
      <point x="377" y="478"/>
      <point x="238" y="467"/>
      <point x="238" y="353" type="curve" smooth="yes"/>
      <point x="238" y="198"/>
      <point x="443" y="238"/>
      <point x="443" y="135" type="curve" smooth="yes"/>
      <point x="443" y="52"/>
      <point x="353" y="58"/>
      <point x="274" y="111" type="curve"/>
      <point x="231" y="29" type="line"/>
      <point x="378" y="-58"/>
      <point x="573" y="-8"/>
      <point x="573" y="155" type="curve" smooth="yes"/>
      <point x="573" y="326"/>
      <point x="368" y="287"/>
      <point x="368" y="376" type="curve" smooth="yes"/>
      <point x="368" y="440"/>
      <point x="511" y="475"/>
      <point x="511" y="597" type="curve" smooth="yes"/>
      <point x="511" y="700"/>
      <point x="418" y="745"/>
      <point x="311" y="745" type="curve" smooth="yes"/>
      <point x="175" y="745"/>
      <point x="110" y="660"/>
      <point x="82" y="539" type="curve" smooth="yes"/>
      <point x="74" y="505"/>
      <point x="26" y="502"/>
      <point x="0" y="502" type="curve"/>
    </contour>
  </outline>
</glyph>
<glyph name="eth" format="2">
  <advance width="536"/>
  <unicode hex="00F0"/>
  <note>
eth
</note>
  <outline>
    <contour>
      <point x="268" y="510" type="curve" smooth="yes"/>
      <point x="119" y="510"/>
      <point x="26" y="392"/>
      <point x="26" y="249" type="curve" smooth="yes"/>
      <point x="26" y="105"/>
      <point x="117" y="-11"/>
      <point x="268" y="-11" type="curve" smooth="yes"/>
      <point x="419" y="-11"/>
      <point x="510" y="105"/>
      <point x="510" y="249" type="curve" smooth="yes"/>
      <point x="510" y="406"/>
      <point x="416" y="560"/>
      <point x="323" y="672" type="curve"/>
      <point x="414" y="723" type="line"/>
      <point x="374" y="783" type="line"/>
      <point x="274" y="728" type="line"/>
      <point x="254" y="748"/>
      <point x="235" y="767"/>
      <point x="218" y="783" type="curve"/>
      <point x="130" y="731" type="line"/>
      <point x="146" y="715"/>
      <point x="164" y="697"/>
      <point x="182" y="677" type="curve"/>
      <point x="90" y="626" type="line"/>
      <point x="135" y="568" type="line"/>
      <point x="228" y="619" type="line"/>
      <point x="254" y="585"/>
      <point x="278" y="547"/>
      <point x="300" y="508" type="curve"/>
      <point x="290" y="509"/>
      <point x="279" y="510"/>
    </contour>
    <contour>
      <point x="268" y="428" type="curve" smooth="yes"/>
      <point x="362" y="428"/>
      <point x="378" y="321"/>
      <point x="378" y="248" type="curve" smooth="yes"/>
      <point x="378" y="175"/>
      <point x="362" y="72"/>
      <point x="268" y="72" type="curve" smooth="yes"/>
      <point x="177" y="72"/>
      <point x="158" y="178"/>
      <point x="158" y="248" type="curve" smooth="yes"/>
      <point x="158" y="318"/>
      <point x="177" y="428"/>
    </contour>
  </outline>
</glyph>
<glyph name="thorn" format="2">
  <advance width="556"/>
  <unicode hex="00FE"/>
  <note>
thorn
</note>
  <outline>
    <contour>
      <point x="316" y="511" type="curve" smooth="yes"/>
      <point x="274" y="511"/>
      <point x="221" y="493"/>
      <point x="189" y="461" type="curve"/>
      <point x="189" y="769" type="line"/>
      <point x="56" y="769" type="line"/>
      <point x="67" y="715" type="line"/>
      <point x="67" y="-217" type="line"/>
      <point x="202" y="-217" type="line"/>
      <point x="188" y="-162" type="line"/>
      <point x="188" y="-36" type="line" smooth="yes"/>
      <point x="188" y="-21"/>
      <point x="188" y="3"/>
      <point x="186" y="22" type="curve"/>
      <point x="214" y="0"/>
      <point x="263" y="-10"/>
      <point x="297" y="-10" type="curve" smooth="yes"/>
      <point x="451" y="-10"/>
      <point x="530" y="110"/>
      <point x="530" y="254" type="curve" smooth="yes"/>
      <point x="530" y="383"/>
      <point x="459" y="511"/>
    </contour>
    <contour>
      <point x="283" y="422" type="curve" smooth="yes"/>
      <point x="372" y="422"/>
      <point x="399" y="321"/>
      <point x="399" y="249" type="curve" smooth="yes"/>
      <point x="399" y="180"/>
      <point x="375" y="75"/>
      <point x="287" y="75" type="curve" smooth="yes"/>
      <point x="210" y="75"/>
      <point x="188" y="141"/>
      <point x="188" y="207" type="curve" smooth="yes"/>
      <point x="188" y="370" type="line"/>
      <point x="208" y="400"/>
      <point x="247" y="422"/>
    </contour>
  </outline>
</glyph>
<glyph name="dcaron" format="2">
  <advance width="638"/>
  <unicode hex="010F"/>
  <outline>
    <contour>
      <point x="260" y="509" type="curve" smooth="yes"/>
      <point x="106" y="509"/>
      <point x="28" y="389"/>
      <point x="28" y="245" type="curve" smooth="yes"/>
      <point x="28" y="117"/>
      <point x="99" y="-12"/>
      <point x="241" y="-12" type="curve" smooth="yes"/>
      <point x="289" y="-12"/>
      <point x="351" y="10"/>
      <point x="379" y="51" type="curve"/>
      <point x="383" y="29"/>
      <point x="387" y="10"/>
      <point x="394" y="-9" type="curve"/>
      <point x="515" y="3" type="line"/>
      <point x="496" y="38"/>
      <point x="490" y="104"/>
      <point x="490" y="142" type="curve" smooth="yes"/>
      <point x="490" y="768" type="line"/>
      <point x="355" y="768" type="line"/>
      <point x="370" y="714" type="line"/>
      <point x="370" y="538" type="line" smooth="yes"/>
      <point x="370" y="515"/>
      <point x="370" y="504"/>
      <point x="371" y="477" type="curve"/>
      <point x="344" y="499"/>
      <point x="295" y="509"/>
    </contour>
    <contour>
      <point x="271" y="424" type="curve" smooth="yes"/>
      <point x="347" y="424"/>
      <point x="370" y="358"/>
      <point x="370" y="292" type="curve" smooth="yes"/>
      <point x="370" y="129" type="line"/>
      <point x="350" y="99"/>
      <point x="311" y="77"/>
      <point x="275" y="77" type="curve" smooth="yes"/>
      <point x="186" y="77"/>
      <point x="159" y="178"/>
      <point x="159" y="250" type="curve" smooth="yes"/>
      <point x="159" y="319"/>
      <point x="183" y="424"/>
    </contour>
    <contour>
      <point x="545" y="768" type="line"/>
      <point x="535" y="603" type="line"/>
      <point x="633" y="603" type="line"/>
      <point x="680" y="768" type="line"/>
    </contour>
  </outline>
</glyph>
<glyph name="lcaron" format="2">
  <advance width="331"/>
  <unicode hex="013E"/>
  <outline>
    <contour>
      <point x="185" y="769" type="line"/>
      <point x="52" y="769" type="line"/>
      <point x="63" y="715" type="line"/>
      <point x="63" y="0" type="line"/>
      <point x="185" y="0" type="line"/>
    </contour>
    <contour>
      <point x="233" y="768" type="line"/>
      <point x="223" y="603" type="line"/>
      <point x="321" y="603" type="line"/>
      <point x="368" y="768" type="line"/>
    </contour>
  </outline>
</glyph>
<glyph name="ldot" format="2">
  <advance width="365"/>
  <unicode hex="0140"/>
  <outline>
    <contour>
      <point x="185" y="769" type="line"/>
      <point x="52" y="769" type="line"/>
      <point x="63" y="715" type="line"/>
      <point x="63" y="0" type="line"/>
      <point x="185" y="0" type="line"/>
    </contour>
    <contour>
      <point x="382" y="308" type="curve" smooth="yes"/>
      <point x="382" y="349"/>
      <point x="348" y="383"/>
      <point x="306" y="383" type="curve" smooth="yes"/>
      <point x="265" y="383"/>
      <point x="231" y="349"/>
      <point x="231" y="307" type="curve" smooth="yes"/>
      <point x="231" y="266"/>
      <point x="265" y="232"/>
      <point x="307" y="232" type="curve" smooth="yes"/>
      <point x="348" y="232"/>
      <point x="382" y="266"/>
    </contour>
  </outline>
</glyph>
<glyph name="tbar" format="2">
  <advance width="327"/>
  <unicode hex="0167"/>
  <outline>
    <contour>
      <point x="224" y="642" type="curve"/>
      <point x="139" y="642" type="line"/>
      <point x="124" y="573"/>
      <point x="84" y="486"/>
      <point x="2" y="484" type="curve"/>
      <point x="2" y="418" type="line"/>
      <point x="84" y="418" type="line"/>
      <point x="84" y="116" type="line" smooth="yes"/>
      <point x="84" y="28"/>
      <point x="123" y="-10"/>
      <point x="209" y="-10" type="curve" smooth="yes"/>
      <point x="245" y="-10"/>
      <point x="292" y="0"/>
      <point x="327" y="11" type="curve"/>
      <point x="313" y="86" type="line"/>
      <point x="292" y="81"/>
      <point x="270" y="76"/>
      <point x="248" y="76" type="curve" smooth="yes"/>
      <point x="208" y="76"/>
      <point x="206" y="120"/>
      <point x="206" y="143" type="curve" smooth="yes"/>
      <point x="206" y="418" type="line"/>
      <point x="308" y="418" type="line"/>
      <point x="327" y="497" type="line"/>
      <point x="206" y="497" type="line"/>
      <point x="207" y="545"/>
      <point x="214" y="595"/>
    </contour>
    <contour>
      <point x="3" y="306" type="line"/>
      <point x="3" y="221" type="line"/>
      <point x="313" y="221" type="line"/>
      <point x="313" y="306" type="line"/>
    </contour>
  </outline>
</glyph>
<glyph name="longs" format="2">
  <advance width="288"/>
  <unicode hex="017F"/>
  <outline>
    <contour>
      <point x="309" y="776" type="curve" smooth="yes"/>
      <point x="262" y="776"/>
      <point x="208" y="762"/>
      <point x="172" y="730" type="curve" smooth="yes"/>
      <point x="103" y="666"/>
      <point x="105" y="616"/>
      <point x="87" y="532" type="curve" smooth="yes"/>
      <point x="78" y="490"/>
      <point x="31" y="488"/>
      <point x="3" y="488" type="curve"/>
      <point x="3" y="417" type="line"/>
      <point x="85" y="417" type="line"/>
      <point x="85" y="-1" type="line"/>
      <point x="205" y="-1" type="line"/>
      <point x="205" y="497" type="line" smooth="yes"/>
      <point x="205" y="633"/>
      <point x="232" y="694"/>
      <point x="314" y="694" type="curve" smooth="yes"/>
      <point x="334" y="694"/>
      <point x="359" y="684"/>
      <point x="376" y="672" type="curve"/>
      <point x="408" y="753" type="line"/>
      <point x="382" y="769"/>
      <point x="339" y="776"/>
    </contour>
  </outline>
</glyph>
<glyph name="Schwa" format="2">
  <advance width="734"/>
  <unicode hex="018F"/>
  <outline>
    <contour>
      <point x="193" y="367" type="curve"/>
      <point x="46" y="367" type="line"/>
      <point x="45" y="353"/>
      <point x="44" y="340"/>
      <point x="44" y="326" type="curve" smooth="yes"/>
      <point x="44" y="134"/>
      <point x="152" y="-11"/>
      <point x="362" y="-11" type="curve" smooth="yes"/>
      <point x="584" y="-11"/>
      <point x="715" y="150"/>
      <point x="715" y="365" type="curve" smooth="yes"/>
      <point x="715" y="624"/>
      <point x="545" y="743"/>
      <point x="368" y="743" type="curve" smooth="yes"/>
      <point x="265" y="743"/>
      <point x="159" y="702"/>
      <point x="83" y="625" type="curve"/>
      <point x="177" y="545" type="line"/>
      <point x="227" y="612"/>
      <point x="297" y="648"/>
      <point x="364" y="648" type="curve" smooth="yes"/>
      <point x="469" y="648"/>
      <point x="567" y="559"/>
      <point x="567" y="361" type="curve" smooth="yes"/>
      <point x="567" y="231"/>
      <point x="520" y="84"/>
      <point x="366" y="84" type="curve" smooth="yes"/>
      <point x="232" y="84"/>
      <point x="189" y="194"/>
      <point x="189" y="308" type="curve" smooth="yes"/>
      <point x="189" y="328"/>
      <point x="191" y="347"/>
    </contour>
    <contour>
      <point x="46" y="367" type="line"/>
      <point x="77" y="279" type="line"/>
      <point x="666" y="279" type="line"/>
      <point x="666" y="367" type="line"/>
    </contour>
  </outline>
</glyph>
<glyph name="Fhook" format="2">
  <advance width="510"/>
  <unicode hex="0191"/>
  <outline>
    <contour>
      <point x="-38" y="-131" type="curve"/>
      <point x="-18" y="-209" type="line"/>
      <point x="179" y="-200"/>
      <point x="206" y="-70"/>
      <point x="206" y="98" type="curve" smooth="yes"/>
      <point x="206" y="327" type="line"/>
      <point x="419" y="327" type="line"/>
      <point x="419" y="426" type="line"/>
      <point x="206" y="426" type="line"/>
      <point x="206" y="633" type="line"/>
      <point x="482" y="633" type="line"/>
      <point x="482" y="732" type="line"/>
      <point x="53" y="732" type="line"/>
      <point x="67" y="671" type="line"/>
      <point x="67" y="47" type="line" smooth="yes"/>
      <point x="67" y="-34"/>
      <point x="59" y="-119"/>
    </contour>
  </outline>
</glyph>
<glyph name="florin" format="2">
  <advance width="377"/>
  <unicode hex="0192"/>
  <note>
florin
</note>
  <guideline x="489" y="624" angle="0"/>
  <outline>
    <contour>
      <point x="342" y="706" type="curve" smooth="yes"/>
      <point x="280" y="706"/>
      <point x="222" y="678"/>
      <point x="188" y="625" type="curve" smooth="yes"/>
      <point x="161" y="584"/>
      <point x="155" y="539"/>
      <point x="138" y="495" type="curve" smooth="yes"/>
      <point x="123" y="457"/>
      <point x="75" y="451"/>
      <point x="40" y="450" type="curve"/>
      <point x="40" y="380" type="line"/>
      <point x="115" y="380" type="line"/>
      <point x="39" y="-39" type="line" smooth="yes"/>
      <point x="31" y="-84"/>
      <point x="3" y="-111"/>
      <point x="-51" y="-111" type="curve"/>
      <point x="-74" y="-189" type="line"/>
      <point x="-57" y="-192"/>
      <point x="-40" y="-194"/>
      <point x="-24" y="-194" type="curve" smooth="yes"/>
      <point x="81" y="-194"/>
      <point x="149" y="-123"/>
      <point x="171" y="1" type="curve" smooth="yes"/>
      <point x="237" y="380" type="line"/>
      <point x="368" y="380" type="line"/>
      <point x="393" y="460" type="line"/>
      <point x="249" y="460" type="line"/>
      <point x="265" y="551"/>
      <point x="292" y="624"/>
      <point x="354" y="624" type="curve" smooth="yes"/>
      <point x="374" y="624"/>
      <point x="398" y="616"/>
      <point x="426" y="599" type="curve"/>
      <point x="460" y="669" type="line"/>
      <point x="423" y="694"/>
      <point x="382" y="706"/>
    </contour>
  </outline>
</glyph>
<glyph name="Nhookleft" format="2">
  <advance width="714"/>
  <unicode hex="019D"/>
  <outline>
    <contour>
      <point x="-39" y="-131" type="curve"/>
      <point x="-19" y="-209" type="line"/>
      <point x="178" y="-200"/>
      <point x="177" y="-70"/>
      <point x="177" y="98" type="curve" smooth="yes"/>
      <point x="177" y="497" type="line" smooth="yes"/>
      <point x="177" y="519"/>
      <point x="173" y="542"/>
      <point x="171" y="564" type="curve"/>
      <point x="184" y="542"/>
      <point x="199" y="519"/>
      <point x="213" y="497" type="curve" smooth="yes"/>
      <point x="542" y="-5" type="line"/>
      <point x="650" y="-5" type="line"/>
      <point x="650" y="731" type="line"/>
      <point x="539" y="731" type="line"/>
      <point x="539" y="304" type="line" smooth="yes"/>
      <point x="539" y="279"/>
      <point x="543" y="252"/>
      <point x="545" y="227" type="curve"/>
      <point x="532" y="249"/>
      <point x="519" y="271"/>
      <point x="504" y="293" type="curve" smooth="yes"/>
      <point x="216" y="731" type="line"/>
      <point x="52" y="731" type="line"/>
      <point x="52" y="732" type="line"/>
      <point x="52" y="731" type="line"/>
      <point x="66" y="670" type="line"/>
      <point x="66" y="47" type="line" smooth="yes"/>
      <point x="66" y="-34"/>
      <point x="58" y="-119"/>
    </contour>
  </outline>
</glyph>
<glyph name="jdotless" format="2">
  <advance width="251"/>
  <unicode hex="0237"/>
  <anchor x="121" y="497" name="top"/>
  <outline>
    <contour>
      <point x="185" y="497" type="line"/>
      <point x="53" y="497" type="line"/>
      <point x="65" y="444" type="line"/>
      <point x="65" y="40" type="line" smooth="yes"/>
      <point x="65" y="-36"/>
      <point x="65" y="-128"/>
      <point x="-11" y="-169" type="curve"/>
      <point x="11" y="-224" type="line"/>
      <point x="166" y="-206"/>
      <point x="185" y="-63"/>
      <point x="185" y="66" type="curve" smooth="yes"/>
    </contour>
  </outline>
</glyph>
<glyph name="schwa" format="2">
  <advance width="494"/>
  <unicode hex="0259"/>
  <outline>
    <contour>
      <point x="229" y="-14" type="curve" smooth="yes"/>
      <point x="379" y="-14"/>
      <point x="468" y="112"/>
      <point x="468" y="252" type="curve" smooth="yes"/>
      <point x="468" y="406"/>
      <point x="374" y="508"/>
      <point x="218" y="508" type="curve" smooth="yes"/>
      <point x="163" y="508"/>
      <point x="85" y="492"/>
      <point x="40" y="455" type="curve"/>
      <point x="91" y="375" type="line"/>
      <point x="121" y="405"/>
      <point x="170" y="428"/>
      <point x="212" y="428" type="curve" smooth="yes"/>
      <point x="300" y="428"/>
      <point x="341" y="339"/>
      <point x="341" y="263" type="curve"/>
      <point x="37" y="263" type="line"/>
      <point x="31" y="241"/>
      <point x="28" y="217"/>
      <point x="28" y="195" type="curve" smooth="yes"/>
      <point x="28" y="88"/>
      <point x="91" y="-14"/>
    </contour>
    <contour>
      <point x="234" y="68" type="curve" smooth="yes"/>
      <point x="174" y="68"/>
      <point x="147" y="121"/>
      <point x="153" y="184" type="curve"/>
      <point x="338" y="184" type="line"/>
      <point x="335" y="132"/>
      <point x="300" y="68"/>
    </contour>
  </outline>
</glyph>
<glyph name="nhookleft" format="2">
  <advance width="538"/>
  <unicode hex="0272"/>
  <outline>
    <contour>
      <point x="-11" y="-169" type="curve"/>
      <point x="11" y="-224" type="line"/>
      <point x="166" y="-206"/>
      <point x="185" y="-63"/>
      <point x="185" y="66" type="curve" smooth="yes"/>
      <point x="185" y="361" type="line"/>
      <point x="206" y="384"/>
      <point x="263" y="416"/>
      <point x="293" y="416" type="curve" smooth="yes"/>
      <point x="351" y="416"/>
      <point x="356" y="370"/>
      <point x="356" y="324" type="curve" smooth="yes"/>
      <point x="356" y="0" type="line"/>
      <point x="477" y="0" type="line"/>
      <point x="477" y="336" type="line" smooth="yes"/>
      <point x="477" y="440"/>
      <point x="444" y="511"/>
      <point x="329" y="511" type="curve" smooth="yes"/>
      <point x="274" y="511"/>
      <point x="217" y="480"/>
      <point x="177" y="444" type="curve"/>
      <point x="174" y="465"/>
      <point x="169" y="488"/>
      <point x="160" y="508" type="curve"/>
      <point x="34" y="493" type="line"/>
      <point x="58" y="464"/>
      <point x="65" y="391"/>
      <point x="65" y="356" type="curve" smooth="yes"/>
      <point x="65" y="40" type="line" smooth="yes"/>
      <point x="65" y="-36"/>
      <point x="65" y="-128"/>
    </contour>
  </outline>
</glyph>
<glyph name="apostrophemod" format="2">
  <advance width="286"/>
  <unicode hex="02BC"/>
  <anchor x="194" y="497" name="_topright"/>
  <outline>
    <contour>
      <point x="148" y="772" type="curve" smooth="yes"/>
      <point x="115" y="772"/>
      <point x="91" y="746"/>
      <point x="91" y="714" type="curve" smooth="yes"/>
      <point x="91" y="668"/>
      <point x="131" y="661"/>
      <point x="131" y="640" type="curve" smooth="yes"/>
      <point x="131" y="622"/>
      <point x="105" y="591"/>
      <point x="92" y="579" type="curve"/>
      <point x="102" y="567"/>
      <point x="113" y="556"/>
      <point x="125" y="545" type="curve"/>
      <point x="172" y="580"/>
      <point x="216" y="632"/>
      <point x="216" y="695" type="curve" smooth="yes"/>
      <point x="216" y="735"/>
      <point x="191" y="772"/>
    </contour>
  </outline>
</glyph>
<glyph name="circumflex" format="2">
  <advance width="293"/>
  <unicode hex="02C6"/>
  <note>
circumflex
</note>
  <anchor x="145" y="497" name="_top"/>
  <outline>
    <contour>
      <point x="145" y="643" type="line"/>
      <point x="205" y="579" type="line"/>
      <point x="293" y="579" type="line"/>
      <point x="194" y="724" type="line"/>
      <point x="96" y="724" type="line"/>
      <point x="0" y="579" type="line"/>
      <point x="86" y="579" type="line"/>
    </contour>
  </outline>
</glyph>
<glyph name="caron" format="2">
  <advance width="293"/>
  <unicode hex="02C7"/>
  <note>
caron
</note>
  <anchor x="145" y="497" name="_top"/>
  <outline>
    <contour>
      <point x="148" y="660" type="line"/>
      <point x="88" y="724" type="line"/>
      <point x="0" y="724" type="line"/>
      <point x="99" y="579" type="line"/>
      <point x="197" y="579" type="line"/>
      <point x="293" y="724" type="line"/>
      <point x="207" y="724" type="line"/>
    </contour>
  </outline>
</glyph>
<glyph name="dotaccent" format="2">
  <advance width="297"/>
  <unicode hex="02D9"/>
  <note>
dotaccent
</note>
  <anchor x="149" y="497" name="_top"/>
  <outline>
    <contour>
      <point x="212" y="652" type="curve" smooth="yes"/>
      <point x="212" y="687"/>
      <point x="183" y="715"/>
      <point x="148" y="715" type="curve" smooth="yes"/>
      <point x="114" y="715"/>
      <point x="85" y="686"/>
      <point x="85" y="652" type="curve" smooth="yes"/>
      <point x="85" y="618"/>
      <point x="114" y="589"/>
      <point x="148" y="589" type="curve" smooth="yes"/>
      <point x="183" y="589"/>
      <point x="212" y="617"/>
    </contour>
  </outline>
</glyph>
<glyph name="hungarumlaut" format="2">
  <advance width="381"/>
  <unicode hex="02DD"/>
  <note>
hungarumlaut
</note>
  <anchor x="137" y="497" name="_top"/>
  <outline>
    <contour>
      <point x="79" y="735" type="line"/>
      <point x="10" y="570" type="line"/>
      <point x="103" y="570" type="line"/>
      <point x="214" y="735" type="line"/>
    </contour>
    <contour>
      <point x="236" y="735" type="line"/>
      <point x="167" y="570" type="line"/>
      <point x="260" y="570" type="line"/>
      <point x="371" y="735" type="line"/>
    </contour>
  </outline>
</glyph>
<glyph name="slashshortcomb" format="2">
  <unicode hex="0337"/>
  <anchor x="126" y="352" name="_center"/>
  <outline>
    <contour>
      <point x="3" y="246" type="line"/>
      <point x="249" y="360" type="line"/>
      <point x="249" y="458" type="line"/>
      <point x="3" y="343" type="line"/>
    </contour>
  </outline>
</glyph>
<glyph name="quoteleft" format="2">
  <advance width="286"/>
  <unicode hex="2018"/>
  <note>
quoteleft
</note>
  <outline>
    <contour>
      <point x="177" y="739" type="line"/>
      <point x="119" y="697"/>
      <point x="68" y="634"/>
      <point x="68" y="559" type="curve" smooth="yes"/>
      <point x="68" y="511"/>
      <point x="97" y="466"/>
      <point x="149" y="466" type="curve" smooth="yes"/>
      <point x="188" y="466"/>
      <point x="218" y="498"/>
      <point x="218" y="536" type="curve" smooth="yes"/>
      <point x="218" y="591"/>
      <point x="170" y="600"/>
      <point x="170" y="625" type="curve" smooth="yes"/>
      <point x="170" y="646"/>
      <point x="200" y="683"/>
      <point x="216" y="698" type="curve"/>
    </contour>
  </outline>
</glyph>
<glyph name="quotedblbase" format="2">
  <advance width="477"/>
  <unicode hex="201E"/>
  <note>
quotedblbase
</note>
  <outline>
    <contour>
      <point x="65" y="-93" type="curve"/>
      <point x="104" y="-134" type="line"/>
      <point x="162" y="-92"/>
      <point x="213" y="-29"/>
      <point x="213" y="46" type="curve" smooth="yes"/>
      <point x="213" y="94"/>
      <point x="184" y="139"/>
      <point x="132" y="139" type="curve" smooth="yes"/>
      <point x="93" y="139"/>
      <point x="63" y="107"/>
      <point x="63" y="69" type="curve" smooth="yes"/>
      <point x="63" y="14"/>
      <point x="111" y="5"/>
      <point x="111" y="-20" type="curve" smooth="yes"/>
      <point x="111" y="-41"/>
      <point x="81" y="-78"/>
    </contour>
    <contour>
      <point x="267" y="-93" type="curve"/>
      <point x="306" y="-134" type="line"/>
      <point x="364" y="-92"/>
      <point x="415" y="-29"/>
      <point x="415" y="46" type="curve" smooth="yes"/>
      <point x="415" y="94"/>
      <point x="386" y="139"/>
      <point x="334" y="139" type="curve" smooth="yes"/>
      <point x="295" y="139"/>
      <point x="265" y="107"/>
      <point x="265" y="69" type="curve" smooth="yes"/>
      <point x="265" y="14"/>
      <point x="313" y="5"/>
      <point x="313" y="-20" type="curve" smooth="yes"/>
      <point x="313" y="-41"/>
      <point x="283" y="-78"/>
    </contour>
  </outline>
</glyph>
<glyph name="perthousand" format="2">
  <advance width="1410"/>
  <unicode hex="2030"/>
  <note>
perthousand
</note>
  <outline>
    <contour>
      <point x="628" y="732" type="line"/>
      <point x="257" y="0" type="line"/>
      <point x="350" y="0" type="line"/>
      <point x="722" y="732" type="line"/>
    </contour>
    <contour>
      <point x="234" y="732" type="curve" smooth="yes"/>
      <point x="115" y="732"/>
      <point x="51" y="644"/>
      <point x="51" y="521" type="curve" smooth="yes"/>
      <point x="51" y="401"/>
      <point x="110" y="308"/>
      <point x="226" y="308" type="curve" smooth="yes"/>
      <point x="342" y="308"/>
      <point x="408" y="401"/>
      <point x="408" y="521" type="curve" smooth="yes"/>
      <point x="408" y="643"/>
      <point x="353" y="732"/>
    </contour>
    <contour>
      <point x="230" y="658" type="curve" smooth="yes"/>
      <point x="301" y="658"/>
      <point x="313" y="580"/>
      <point x="313" y="521" type="curve" smooth="yes"/>
      <point x="313" y="459"/>
      <point x="304" y="382"/>
      <point x="230" y="382" type="curve" smooth="yes"/>
      <point x="156" y="382"/>
      <point x="146" y="459"/>
      <point x="146" y="521" type="curve" smooth="yes"/>
      <point x="146" y="579"/>
      <point x="161" y="658"/>
    </contour>
    <contour>
      <point x="762" y="414" type="curve" smooth="yes"/>
      <point x="643" y="414"/>
      <point x="579" y="326"/>
      <point x="579" y="203" type="curve" smooth="yes"/>
      <point x="579" y="83"/>
      <point x="638" y="-10"/>
      <point x="754" y="-10" type="curve" smooth="yes"/>
      <point x="870" y="-10"/>
      <point x="936" y="83"/>
      <point x="936" y="203" type="curve" smooth="yes"/>
      <point x="936" y="325"/>
      <point x="881" y="414"/>
    </contour>
    <contour>
      <point x="758" y="340" type="curve" smooth="yes"/>
      <point x="829" y="340"/>
      <point x="841" y="262"/>
      <point x="841" y="203" type="curve" smooth="yes"/>
      <point x="841" y="141"/>
      <point x="832" y="64"/>
      <point x="758" y="64" type="curve" smooth="yes"/>
      <point x="684" y="64"/>
      <point x="674" y="141"/>
      <point x="674" y="203" type="curve" smooth="yes"/>
      <point x="674" y="261"/>
      <point x="689" y="340"/>
    </contour>
    <contour>
      <point x="234" y="732" type="line"/>
      <point x="230" y="658" type="line"/>
      <point x="634" y="658" type="line"/>
      <point x="634" y="732" type="line"/>
    </contour>
    <contour>
      <point x="1185" y="414" type="curve" smooth="yes"/>
      <point x="1066" y="414"/>
      <point x="1002" y="326"/>
      <point x="1002" y="203" type="curve" smooth="yes"/>
      <point x="1002" y="83"/>
      <point x="1061" y="-10"/>
      <point x="1177" y="-10" type="curve" smooth="yes"/>
      <point x="1293" y="-10"/>
      <point x="1359" y="83"/>
      <point x="1359" y="203" type="curve" smooth="yes"/>
      <point x="1359" y="325"/>
      <point x="1304" y="414"/>
    </contour>
    <contour>
      <point x="1181" y="340" type="curve" smooth="yes"/>
      <point x="1252" y="340"/>
      <point x="1264" y="262"/>
      <point x="1264" y="203" type="curve" smooth="yes"/>
      <point x="1264" y="141"/>
      <point x="1255" y="64"/>
      <point x="1181" y="64" type="curve" smooth="yes"/>
      <point x="1107" y="64"/>
      <point x="1097" y="141"/>
      <point x="1097" y="203" type="curve" smooth="yes"/>
      <point x="1097" y="261"/>
      <point x="1112" y="340"/>
    </contour>
  </outline>
</glyph>
<glyph name="second" format="2">
  <advance width="493"/>
  <unicode hex="2033"/>
  <outline>
    <contour>
      <point x="105" y="705" type="line"/>
      <point x="56" y="520" type="line"/>
      <point x="159" y="520" type="line"/>
      <point x="250" y="705" type="line"/>
    </contour>
    <contour>
      <point x="302" y="705" type="line"/>
      <point x="253" y="520" type="line"/>
      <point x="356" y="520" type="line"/>
      <point x="447" y="705" type="line"/>
    </contour>
  </outline>
</glyph>
<glyph name="guilsinglleft" format="2">
  <advance width="298"/>
  <unicode hex="2039"/>
  <note>
guilsinglleft
</note>
  <outline>
    <contour>
      <point x="33" y="332" type="line"/>
      <point x="189" y="162" type="line"/>
      <point x="265" y="173" type="line"/>
      <point x="143" y="332" type="line"/>
      <point x="262" y="490" type="line"/>
      <point x="185" y="504" type="line"/>
    </contour>
  </outline>
</glyph>
<glyph name="commercialMinusSign" format="2">
  <advance width="467"/>
  <unicode hex="2052"/>
  <outline>
    <contour>
      <point x="321" y="732" type="line"/>
      <point x="52" y="0" type="line"/>
      <point x="145" y="0" type="line"/>
      <point x="415" y="732" type="line"/>
    </contour>
    <contour>
      <point x="212" y="664" type="curve" smooth="yes"/>
      <point x="212" y="707"/>
      <point x="178" y="742"/>
      <point x="135" y="742" type="curve" smooth="yes"/>
      <point x="92" y="742"/>
      <point x="58" y="707"/>
      <point x="58" y="664" type="curve" smooth="yes"/>
      <point x="58" y="622"/>
      <point x="92" y="587"/>
      <point x="135" y="587" type="curve" smooth="yes"/>
      <point x="178" y="587"/>
      <point x="212" y="622"/>
    </contour>
    <contour>
      <point x="408" y="65" type="curve" smooth="yes"/>
      <point x="408" y="108"/>
      <point x="374" y="143"/>
      <point x="331" y="143" type="curve" smooth="yes"/>
      <point x="288" y="143"/>
      <point x="254" y="108"/>
      <point x="254" y="65" type="curve" smooth="yes"/>
      <point x="254" y="23"/>
      <point x="288" y="-12"/>
      <point x="331" y="-12" type="curve" smooth="yes"/>
      <point x="374" y="-12"/>
      <point x="408" y="23"/>
    </contour>
  </outline>
</glyph>
<glyph name="zerosuperior" format="2">
  <advance width="455"/>
  <unicode hex="2070"/>
  <outline>
    <contour>
      <point x="233" y="935" type="curve" smooth="yes"/>
      <point x="90" y="935"/>
      <point x="13" y="829"/>
      <point x="13" y="681" type="curve" smooth="yes"/>
      <point x="13" y="537"/>
      <point x="84" y="426"/>
      <point x="223" y="426" type="curve" smooth="yes"/>
      <point x="362" y="426"/>
      <point x="442" y="537"/>
      <point x="442" y="681" type="curve" smooth="yes"/>
      <point x="442" y="828"/>
      <point x="375" y="935"/>
    </contour>
    <contour>
      <point x="228" y="846" type="curve" smooth="yes"/>
      <point x="313" y="846"/>
      <point x="328" y="752"/>
      <point x="328" y="681" type="curve" smooth="yes"/>
      <point x="328" y="607"/>
      <point x="317" y="515"/>
      <point x="228" y="515" type="curve" smooth="yes"/>
      <point x="139" y="515"/>
      <point x="127" y="607"/>
      <point x="127" y="681" type="curve" smooth="yes"/>
      <point x="127" y="751"/>
      <point x="145" y="846"/>
    </contour>
  </outline>
</glyph>
<glyph name="foursuperior" format="2">
  <advance width="455"/>
  <unicode hex="2074"/>
  <outline>
    <contour>
      <point x="253" y="539" type="line"/>
      <point x="253" y="438" type="line"/>
      <point x="367" y="438" type="line"/>
      <point x="367" y="539" type="line"/>
      <point x="414" y="539" type="line"/>
      <point x="439" y="618" type="line"/>
      <point x="367" y="618" type="line"/>
      <point x="367" y="924" type="line"/>
      <point x="254" y="924" type="line"/>
      <point x="28" y="591" type="line"/>
      <point x="28" y="539" type="line"/>
    </contour>
    <contour>
      <point x="261" y="794" type="line"/>
      <point x="253" y="618" type="line"/>
      <point x="143" y="618" type="line"/>
    </contour>
  </outline>
</glyph>
<glyph name="sixsuperior" format="2">
  <advance width="455"/>
  <unicode hex="2076"/>
  <outline>
    <contour>
      <point x="352" y="950" type="line"/>
      <point x="191" y="907"/>
      <point x="43" y="777"/>
      <point x="43" y="609" type="curve" smooth="yes"/>
      <point x="43" y="480"/>
      <point x="128" y="425"/>
      <point x="217" y="425" type="curve" smooth="yes"/>
      <point x="350" y="425"/>
      <point x="413" y="514"/>
      <point x="413" y="597" type="curve" smooth="yes"/>
      <point x="413" y="670"/>
      <point x="364" y="739"/>
      <point x="268" y="739" type="curve" smooth="yes"/>
      <point x="233" y="739"/>
      <point x="196" y="730"/>
      <point x="159" y="710" type="curve"/>
      <point x="148" y="632" type="line"/>
      <point x="177" y="650"/>
      <point x="208" y="661"/>
      <point x="234" y="661" type="curve" smooth="yes"/>
      <point x="280" y="661"/>
      <point x="301" y="625"/>
      <point x="301" y="586" type="curve" smooth="yes"/>
      <point x="301" y="540"/>
      <point x="277" y="497"/>
      <point x="225" y="497" type="curve" smooth="yes"/>
      <point x="183" y="497"/>
      <point x="157" y="527"/>
      <point x="157" y="603" type="curve" smooth="yes"/>
      <point x="157" y="707"/>
      <point x="209" y="812"/>
      <point x="382" y="888" type="curve"/>
    </contour>
  </outline>
</glyph>
<glyph name="sevensuperior" format="2">
  <advance width="455"/>
  <unicode hex="2077"/>
  <outline>
    <contour>
      <point x="94" y="925" type="line"/>
      <point x="66" y="830" type="line"/>
      <point x="283" y="830" type="line"/>
      <point x="77" y="432" type="line"/>
      <point x="196" y="432" type="line"/>
      <point x="401" y="880" type="line"/>
      <point x="401" y="925" type="line"/>
    </contour>
  </outline>
</glyph>
<glyph name="eightsuperior" format="2">
  <advance width="455"/>
  <unicode hex="2078"/>
  <outline>
    <contour>
      <point x="398" y="813" type="curve" smooth="yes"/>
      <point x="398" y="893"/>
      <point x="319" y="933"/>
      <point x="238" y="933" type="curve" smooth="yes"/>
      <point x="151" y="933"/>
      <point x="62" y="887"/>
      <point x="62" y="795" type="curve" smooth="yes"/>
      <point x="62" y="641"/>
      <point x="300" y="639"/>
      <point x="300" y="562" type="curve" smooth="yes"/>
      <point x="300" y="518"/>
      <point x="259" y="496"/>
      <point x="217" y="496" type="curve" smooth="yes"/>
      <point x="176" y="496"/>
      <point x="134" y="518"/>
      <point x="134" y="563" type="curve" smooth="yes"/>
      <point x="134" y="598"/>
      <point x="155" y="643"/>
      <point x="213" y="656" type="curve"/>
      <point x="172" y="706" type="line"/>
      <point x="81" y="679"/>
      <point x="45" y="611"/>
      <point x="45" y="561" type="curve" smooth="yes"/>
      <point x="45" y="471"/>
      <point x="135" y="425"/>
      <point x="226" y="425" type="curve" smooth="yes"/>
      <point x="320" y="425"/>
      <point x="416" y="474"/>
      <point x="416" y="575" type="curve" smooth="yes"/>
      <point x="416" y="734"/>
      <point x="176" y="731"/>
      <point x="176" y="808" type="curve" smooth="yes"/>
      <point x="176" y="843"/>
      <point x="211" y="863"/>
      <point x="246" y="863" type="curve" smooth="yes"/>
      <point x="278" y="863"/>
      <point x="310" y="845"/>
      <point x="310" y="808" type="curve" smooth="yes"/>
      <point x="310" y="776"/>
      <point x="297" y="747"/>
      <point x="247" y="729" type="curve"/>
      <point x="288" y="681" type="line"/>
      <point x="367" y="708"/>
      <point x="398" y="768"/>
    </contour>
  </outline>
</glyph>
<glyph name="colonsign" format="2">
  <advance width="654"/>
  <unicode hex="20A1"/>
  <outline>
    <contour>
      <point x="40" y="351" type="curve" smooth="yes"/>
      <point x="40" y="114"/>
      <point x="178" y="-12"/>
      <point x="350" y="-12" type="curve" smooth="yes"/>
      <point x="421" y="-12"/>
      <point x="489" y="11"/>
      <point x="559" y="59" type="curve"/>
      <point x="509" y="140" type="line"/>
      <point x="454" y="102"/>
      <point x="400" y="85"/>
      <point x="352" y="85" type="curve" smooth="yes"/>
      <point x="255" y="85"/>
      <point x="189" y="176"/>
      <point x="189" y="354" type="curve" smooth="yes"/>
      <point x="189" y="521"/>
      <point x="272" y="609"/>
      <point x="370" y="609" type="curve" smooth="yes"/>
      <point x="420" y="609"/>
      <point x="474" y="600"/>
      <point x="522" y="562" type="curve"/>
      <point x="549" y="666" type="line"/>
      <point x="496" y="693"/>
      <point x="430" y="706"/>
      <point x="375" y="706" type="curve" smooth="yes"/>
      <point x="201" y="706"/>
      <point x="40" y="581"/>
    </contour>
    <contour>
      <point x="124" y="-36" type="line"/>
      <point x="196" y="-76" type="line"/>
      <point x="494" y="768" type="line"/>
      <point x="421" y="808" type="line"/>
    </contour>
    <contour>
      <point x="248" y="-105" type="line"/>
      <point x="320" y="-146" type="line"/>
      <point x="617" y="698" type="line"/>
      <point x="545" y="739" type="line"/>
    </contour>
  </outline>
</glyph>
<glyph name="won" format="2">
  <advance width="914"/>
  <unicode hex="20A9"/>
  <outline>
    <contour>
      <point x="154" y="706" type="line"/>
      <point x="16" y="706" type="line"/>
      <point x="207" y="-2" type="line"/>
      <point x="335" y="-2" type="line"/>
      <point x="433" y="355" type="line" smooth="yes"/>
      <point x="448" y="409"/>
      <point x="450" y="464"/>
      <point x="458" y="520" type="curve"/>
      <point x="462" y="482"/>
      <point x="469" y="445"/>
      <point x="478" y="408" type="curve" smooth="yes"/>
      <point x="581" y="-2" type="line"/>
      <point x="705" y="-2" type="line"/>
      <point x="898" y="706" type="line"/>
      <point x="787" y="706" type="line"/>
      <point x="691" y="326" type="line" smooth="yes"/>
      <point x="677" y="272"/>
      <point x="665" y="218"/>
      <point x="657" y="162" type="curve"/>
      <point x="652" y="204"/>
      <point x="646" y="247"/>
      <point x="636" y="287" type="curve" smooth="yes"/>
      <point x="529" y="706" type="line"/>
      <point x="413" y="706" type="line"/>
      <point x="318" y="326" type="line" smooth="yes"/>
      <point x="304" y="272"/>
      <point x="291" y="218"/>
      <point x="283" y="162" type="curve"/>
      <point x="277" y="205"/>
      <point x="270" y="248"/>
      <point x="260" y="289" type="curve" smooth="yes"/>
    </contour>
    <contour>
      <point x="23" y="447" type="line"/>
      <point x="10" y="369" type="line"/>
      <point x="890" y="369" type="line"/>
      <point x="903" y="447" type="line"/>
    </contour>
    <contour>
      <point x="24" y="323" type="line"/>
      <point x="10" y="245" type="line"/>
      <point x="890" y="245" type="line"/>
      <point x="904" y="323" type="line"/>
    </contour>
  </outline>
</glyph>
<glyph name="dong" format="2">
  <advance width="600"/>
  <unicode hex="20AB"/>
  <anchor x="402" y="636" name="center"/>
  <anchor x="370" y="530" name="topright"/>
  <outline>
    <contour>
      <point x="85" y="-82" type="line"/>
      <point x="72" y="-164" type="line"/>
      <point x="504" y="-164" type="line"/>
      <point x="517" y="-82" type="line"/>
    </contour>
    <component base="dcroat" xOffset="10"/>
  </outline>
</glyph>
<glyph name="peso" format="2">
  <advance width="658"/>
  <unicode hex="20B1"/>
  <outline>
    <contour>
      <point x="68" y="706" type="line"/>
      <point x="83" y="645" type="line"/>
      <point x="83" y="0" type="line"/>
      <point x="220" y="0" type="line"/>
      <point x="220" y="248" type="line"/>
      <point x="302" y="248" type="line" smooth="yes"/>
      <point x="438" y="248"/>
      <point x="566" y="324"/>
      <point x="566" y="477" type="curve" smooth="yes"/>
      <point x="566" y="642"/>
      <point x="445" y="706"/>
      <point x="300" y="706" type="curve" smooth="yes"/>
    </contour>
    <contour>
      <point x="221" y="607" type="line"/>
      <point x="306" y="607" type="line" smooth="yes"/>
      <point x="382" y="607"/>
      <point x="420" y="550"/>
      <point x="420" y="477" type="curve" smooth="yes"/>
      <point x="420" y="406"/>
      <point x="379" y="345"/>
      <point x="305" y="345" type="curve" smooth="yes"/>
      <point x="221" y="345" type="line"/>
    </contour>
    <contour>
      <point x="30" y="572" type="line"/>
      <point x="17" y="496" type="line"/>
      <point x="623" y="496" type="line"/>
      <point x="636" y="572" type="line"/>
    </contour>
    <contour>
      <point x="31" y="459" type="line"/>
      <point x="17" y="382" type="line"/>
      <point x="623" y="382" type="line"/>
      <point x="637" y="459" type="line"/>
    </contour>
  </outline>
</glyph>
<glyph name="guarani" format="2">
  <advance width="707"/>
  <unicode hex="20B2"/>
  <outline>
    <contour>
      <point x="385" y="706" type="curve" smooth="yes"/>
      <point x="162" y="706"/>
      <point x="59" y="530"/>
      <point x="59" y="339" type="curve" smooth="yes"/>
      <point x="59" y="175"/>
      <point x="136" y="-11"/>
      <point x="333" y="-11" type="curve" smooth="yes"/>
      <point x="415" y="-11"/>
      <point x="475" y="14"/>
      <point x="541" y="75" type="curve"/>
      <point x="575" y="-1" type="line"/>
      <point x="646" y="-1" type="line"/>
      <point x="642" y="68"/>
      <point x="640" y="137"/>
      <point x="641" y="206" type="curve" smooth="yes"/>
      <point x="643" y="370" type="line"/>
      <point x="365" y="370" type="line"/>
      <point x="352" y="282" type="line"/>
      <point x="504" y="282" type="line"/>
      <point x="504" y="240" type="line" smooth="yes"/>
      <point x="504" y="144"/>
      <point x="440" y="85"/>
      <point x="356" y="85" type="curve" smooth="yes"/>
      <point x="229" y="85"/>
      <point x="204" y="265"/>
      <point x="204" y="348" type="curve" smooth="yes"/>
      <point x="204" y="455"/>
      <point x="229" y="612"/>
      <point x="375" y="612" type="curve" smooth="yes"/>
      <point x="460" y="612"/>
      <point x="495" y="592"/>
      <point x="559" y="545" type="curve"/>
      <point x="622" y="627" type="line"/>
      <point x="561" y="677"/>
      <point x="463" y="706"/>
    </contour>
    <contour>
      <point x="330" y="-106" type="line"/>
      <point x="412" y="-119" type="line"/>
      <point x="412" y="795" type="line"/>
      <point x="330" y="808" type="line"/>
    </contour>
  </outline>
</glyph>
<glyph name="cedi" format="2">
  <advance width="613"/>
  <unicode hex="20B5"/>
  <outline>
    <contour>
      <point x="59" y="351" type="curve" smooth="yes"/>
      <point x="59" y="114"/>
      <point x="197" y="-12"/>
      <point x="369" y="-12" type="curve" smooth="yes"/>
      <point x="440" y="-12"/>
      <point x="508" y="11"/>
      <point x="578" y="59" type="curve"/>
      <point x="528" y="140" type="line"/>
      <point x="473" y="102"/>
      <point x="419" y="85"/>
      <point x="371" y="85" type="curve" smooth="yes"/>
      <point x="274" y="85"/>
      <point x="208" y="176"/>
      <point x="208" y="354" type="curve" smooth="yes"/>
      <point x="208" y="521"/>
      <point x="291" y="609"/>
      <point x="389" y="609" type="curve" smooth="yes"/>
      <point x="439" y="609"/>
      <point x="492" y="587"/>
      <point x="541" y="542" type="curve"/>
      <point x="568" y="666" type="line"/>
      <point x="515" y="693"/>
      <point x="449" y="706"/>
      <point x="394" y="706" type="curve" smooth="yes"/>
      <point x="220" y="706"/>
      <point x="59" y="581"/>
    </contour>
    <contour>
      <point x="319" y="-106" type="line"/>
      <point x="401" y="-119" type="line"/>
      <point x="401" y="795" type="line"/>
      <point x="319" y="808" type="line"/>
    </contour>
  </outline>
</glyph>
<glyph name="rupeeIndian" format="2">
  <advance width="615"/>
  <unicode hex="20B9"/>
  <outline>
    <contour>
      <point x="195" y="706" type="curve" smooth="yes"/>
      <point x="92" y="706" type="line"/>
      <point x="92" y="624" type="line"/>
      <point x="201" y="624" type="line" smooth="yes"/>
      <point x="277" y="624"/>
      <point x="305" y="570"/>
      <point x="305" y="497" type="curve" smooth="yes"/>
      <point x="305" y="426"/>
      <point x="274" y="385"/>
      <point x="200" y="385" type="curve" smooth="yes"/>
      <point x="93" y="385" type="line"/>
      <point x="92" y="288" type="line"/>
      <point x="197" y="288" type="line" smooth="yes"/>
      <point x="333" y="288"/>
      <point x="451" y="353"/>
      <point x="451" y="506" type="curve" smooth="yes"/>
      <point x="451" y="671"/>
      <point x="340" y="706"/>
    </contour>
    <contour>
      <point x="216" y="347" type="line"/>
      <point x="92" y="288" type="line"/>
      <point x="293" y="0" type="line"/>
      <point x="455" y="0" type="line"/>
    </contour>
    <contour>
      <point x="92" y="706" type="line"/>
      <point x="92" y="624" type="line"/>
      <point x="553" y="624" type="line"/>
      <point x="566" y="706" type="line"/>
    </contour>
    <contour>
      <point x="93" y="547" type="line"/>
      <point x="93" y="465" type="line"/>
      <point x="528" y="465" type="line"/>
      <point x="541" y="547" type="line"/>
    </contour>
  </outline>
</glyph>
<glyph name="liraTurkish" format="2">
  <advance width="568"/>
  <unicode hex="20BA"/>
  <outline>
    <contour>
      <point x="73" y="706" type="line"/>
      <point x="86" y="645" type="line"/>
      <point x="86" y="0" type="line"/>
      <point x="271" y="0" type="line" smooth="yes"/>
      <point x="448" y="0"/>
      <point x="542" y="113"/>
      <point x="542" y="296" type="curve"/>
      <point x="407" y="296" type="line"/>
      <point x="407" y="192"/>
      <point x="379" y="99"/>
      <point x="272" y="99" type="curve" smooth="yes"/>
      <point x="225" y="99" type="line"/>
      <point x="225" y="706" type="line"/>
    </contour>
    <contour>
      <point x="23" y="395" type="line"/>
      <point x="10" y="306" type="line"/>
      <point x="355" y="409" type="line"/>
      <point x="368" y="498" type="line"/>
    </contour>
    <contour>
      <point x="24" y="265" type="line"/>
      <point x="10" y="176" type="line"/>
      <point x="355" y="279" type="line"/>
      <point x="369" y="368" type="line"/>
    </contour>
  </outline>
</glyph>
<glyph name="estimated" format="2">
  <advance width="729"/>
  <unicode hex="212E"/>
  <outline>
    <contour>
      <point x="373" y="696" type="curve" smooth="yes"/>
      <point x="172" y="696"/>
      <point x="50" y="561"/>
      <point x="50" y="344" type="curve" smooth="yes"/>
      <point x="50" y="127"/>
      <point x="171" y="-10"/>
      <point x="378" y="-10" type="curve" smooth="yes"/>
      <point x="485" y="-10"/>
      <point x="570" y="31"/>
      <point x="625" y="105" type="curve"/>
      <point x="587" y="135" type="line"/>
      <point x="541" y="69"/>
      <point x="469" y="35"/>
      <point x="380" y="35" type="curve" smooth="yes"/>
      <point x="287" y="35"/>
      <point x="210" y="72"/>
      <point x="164" y="141" type="curve"/>
      <point x="164" y="316" type="line"/>
      <point x="679" y="316" type="line"/>
      <point x="683" y="566"/>
      <point x="570" y="696"/>
    </contour>
    <contour>
      <point x="164" y="364" type="line"/>
      <point x="164" y="549" type="line"/>
      <point x="208" y="615"/>
      <point x="281" y="651"/>
      <point x="371" y="651" type="curve" smooth="yes"/>
      <point x="458" y="651"/>
      <point x="529" y="617"/>
      <point x="573" y="554" type="curve"/>
      <point x="573" y="364" type="line"/>
    </contour>
  </outline>
</glyph>
<glyph name="product" format="2">
  <advance width="833"/>
  <unicode hex="220F"/>
  <note>
product
</note>
  <outline>
    <contour>
      <point x="565" y="633" type="line"/>
      <point x="565" y="-229" type="line"/>
      <point x="708" y="-229" type="line"/>
      <point x="708" y="633" type="line"/>
      <point x="815" y="633" type="line"/>
      <point x="815" y="732" type="line"/>
      <point x="18" y="732" type="line"/>
      <point x="18" y="633" type="line"/>
      <point x="123" y="633" type="line"/>
      <point x="123" y="-229" type="line"/>
      <point x="266" y="-229" type="line"/>
      <point x="266" y="633" type="line"/>
    </contour>
  </outline>
</glyph>
<glyph name="summation" format="2">
  <advance width="726"/>
  <unicode hex="2211"/>
  <note>
summation
</note>
  <outline>
    <contour>
      <point x="40" y="-99" type="line"/>
      <point x="40" y="-229" type="line"/>
      <point x="686" y="-229" type="line"/>
      <point x="686" y="-92" type="line"/>
      <point x="169" y="-92" type="line"/>
      <point x="474" y="310" type="line"/>
      <point x="210" y="633" type="line"/>
      <point x="676" y="633" type="line"/>
      <point x="676" y="732" type="line"/>
      <point x="40" y="732" type="line"/>
      <point x="40" y="633" type="line"/>
      <point x="326" y="277" type="line"/>
    </contour>
  </outline>
</glyph>
<glyph name="lessequal" format="2">
  <advance width="630"/>
  <unicode hex="2264"/>
  <note>
lessequal
</note>
  <outline>
    <contour>
      <point x="66" y="335" type="line"/>
      <point x="66" y="283" type="line"/>
      <point x="564" y="106" type="line"/>
      <point x="564" y="198" type="line"/>
      <point x="210" y="309" type="line"/>
      <point x="564" y="421" type="line"/>
      <point x="564" y="511" type="line"/>
    </contour>
    <contour>
      <point x="67" y="86" type="line"/>
      <point x="67" y="1" type="line"/>
      <point x="565" y="1" type="line"/>
      <point x="565" y="86" type="line"/>
    </contour>
  </outline>
</glyph>
<glyph name="lozenge" format="2">
  <advance width="504"/>
  <unicode hex="25CA"/>
  <note>
lozenge
</note>
  <outline>
    <contour>
      <point x="231" y="739" type="line"/>
      <point x="25" y="362" type="line"/>
      <point x="231" y="-14" type="line"/>
      <point x="273" y="-14" type="line"/>
      <point x="479" y="362" type="line"/>
      <point x="273" y="739" type="line"/>
    </contour>
    <contour>
      <point x="250" y="624" type="line"/>
      <point x="254" y="624" type="line"/>
      <point x="390" y="362" type="line"/>
      <point x="254" y="101" type="line"/>
      <point x="250" y="101" type="line"/>
      <point x="113" y="362" type="line"/>
    </contour>
  </outline>
</glyph>
<glyph name="leftanglebracket-math" format="2">
  <advance width="412"/>
  <unicode hex="27E8"/>
  <outline>
    <contour>
      <point x="40" y="292" type="line"/>
      <point x="296" y="-78" type="line"/>
      <point x="372" y="-67" type="line"/>
      <point x="150" y="292" type="line"/>
      <point x="369" y="650" type="line"/>
      <point x="292" y="664" type="line"/>
    </contour>
  </outline>
</glyph>
<glyph name="rightanglebracket-math" format="2">
  <advance width="412"/>
  <unicode hex="27E9"/>
  <outline>
    <contour>
      <point x="372" y="294" type="line"/>
      <point x="116" y="664" type="line"/>
      <point x="40" y="653" type="line"/>
      <point x="262" y="294" type="line"/>
      <point x="43" y="-64" type="line"/>
      <point x="120" y="-78" type="line"/>
    </contour>
  </outline>
</glyph>
<glyph name=".notdef" format="2">
  <advance width="641"/>
  <note>
.notdef
</note>
  <outline>
    <contour>
      <point x="581" y="728" type="line"/>
      <point x="60" y="728" type="line"/>
      <point x="60" y="0" type="line"/>
      <point x="581" y="0" type="line"/>
    </contour>
    <contour>
      <point x="143" y="676" type="line"/>
      <point x="498" y="676" type="line"/>
      <point x="320" y="412" type="line"/>
    </contour>
    <contour>
      <point x="289" y="365" type="line"/>
      <point x="112" y="99" type="line"/>
      <point x="112" y="629" type="line"/>
    </contour>
    <contour>
      <point x="529" y="629" type="line"/>
      <point x="529" y="99" type="line"/>
      <point x="352" y="365" type="line"/>
    </contour>
    <contour>
      <point x="320" y="318" type="line"/>
      <point x="498" y="52" type="line"/>
      <point x="143" y="52" type="line"/>
    </contour>
  </outline>
</glyph>
<glyph name="acute.case" format="2">
  <advance width="315"/>
  <anchor x="82" y="732" name="_top"/>
  <outline>
    <contour>
      <point x="139" y="923" type="line"/>
      <point x="30" y="779" type="line"/>
      <point x="134" y="779" type="line"/>
      <point x="285" y="923" type="line"/>
    </contour>
  </outline>
</glyph>
<glyph name="acute.loclPLK" format="2">
  <advance width="257"/>
  <anchor x="83" y="497" name="_top"/>
  <outline>
    <contour>
      <point x="82" y="735" type="line"/>
      <point x="33" y="570" type="line"/>
      <point x="136" y="570" type="line"/>
      <point x="227" y="735" type="line"/>
    </contour>
  </outline>
</glyph>
<glyph name="baraccent" format="2">
  <advance width="411"/>
  <anchor x="205" y="313" name="_center"/>
  <outline>
    <contour>
      <point x="40" y="355" type="line"/>
      <point x="40" y="270" type="line"/>
      <point x="371" y="270" type="line"/>
      <point x="371" y="355" type="line"/>
    </contour>
  </outline>
</glyph>
<glyph name="baraccentlong" format="2">
  <advance width="771"/>
  <anchor x="385" y="313" name="_center"/>
  <outline>
    <contour>
      <point x="40" y="355" type="line"/>
      <point x="40" y="270" type="line"/>
      <point x="731" y="270" type="line"/>
      <point x="731" y="355" type="line"/>
    </contour>
  </outline>
</glyph>
<glyph name="breve.case" format="2">
  <advance width="301"/>
  <anchor x="150" y="732" name="_top"/>
  <outline>
    <contour>
      <point x="301" y="922" type="curve"/>
      <point x="232" y="922" type="line"/>
      <point x="222" y="897"/>
      <point x="198" y="872"/>
      <point x="150" y="872" type="curve" smooth="yes"/>
      <point x="101" y="872"/>
      <point x="78" y="896"/>
      <point x="67" y="922" type="curve"/>
      <point x="0" y="922" type="line"/>
      <point x="8" y="851"/>
      <point x="49" y="782"/>
      <point x="147" y="782" type="curve" smooth="yes"/>
      <point x="251" y="782"/>
      <point x="289" y="849"/>
    </contour>
  </outline>
</glyph>
<glyph name="brevegrave" format="2">
  <advance width="301"/>
  <anchor x="151" y="497" name="_top"/>
  <outline>
    <contour>
      <point x="0" y="732" type="line"/>
      <point x="12" y="639"/>
      <point x="47" y="572"/>
      <point x="151" y="572" type="curve" smooth="yes"/>
      <point x="249" y="572"/>
      <point x="293" y="641"/>
      <point x="301" y="732" type="curve"/>
      <point x="234" y="732" type="line"/>
      <point x="223" y="686"/>
      <point x="200" y="662"/>
      <point x="151" y="662" type="curve" smooth="yes"/>
      <point x="103" y="662"/>
      <point x="79" y="687"/>
      <point x="69" y="732" type="curve"/>
    </contour>
    <contour>
      <point x="112" y="876" type="line"/>
      <point x="-23" y="876" type="line"/>
      <point x="108" y="731" type="line"/>
      <point x="201" y="731" type="line"/>
    </contour>
  </outline>
</glyph>
<glyph name="brevehook.case" format="2">
  <advance width="301"/>
  <anchor x="150" y="732" name="_top"/>
  <outline>
    <contour>
      <point x="301" y="922" type="curve"/>
      <point x="232" y="922" type="line"/>
      <point x="222" y="897"/>
      <point x="198" y="872"/>
      <point x="150" y="872" type="curve" smooth="yes"/>
      <point x="101" y="872"/>
      <point x="78" y="896"/>
      <point x="67" y="922" type="curve"/>
      <point x="0" y="922" type="line"/>
      <point x="8" y="851"/>
      <point x="49" y="782"/>
      <point x="147" y="782" type="curve" smooth="yes"/>
      <point x="251" y="782"/>
      <point x="289" y="849"/>
    </contour>
    <contour>
      <point x="128" y="922" type="line"/>
      <point x="173" y="922" type="line"/>
      <point x="180" y="964" type="line"/>
      <point x="223" y="965"/>
      <point x="263" y="990"/>
      <point x="263" y="1043" type="curve" smooth="yes"/>
      <point x="263" y="1090"/>
      <point x="218" y="1114"/>
      <point x="168" y="1114" type="curve" smooth="yes"/>
      <point x="136" y="1114"/>
      <point x="102" y="1104"/>
      <point x="75" y="1086" type="curve"/>
      <point x="98" y="1039" type="line"/>
      <point x="114" y="1047"/>
      <point x="133" y="1053"/>
      <point x="148" y="1053" type="curve" smooth="yes"/>
      <point x="168" y="1053"/>
      <point x="181" y="1045"/>
      <point x="181" y="1027" type="curve" smooth="yes"/>
      <point x="181" y="1005"/>
      <point x="164" y="999"/>
      <point x="145" y="999" type="curve" smooth="yes"/>
      <point x="135" y="999"/>
      <point x="124" y="1001"/>
      <point x="115" y="1004" type="curve"/>
    </contour>
  </outline>
</glyph>
<glyph name="brevehook" format="2">
  <advance width="301"/>
  <anchor x="150" y="497" name="_top"/>
  <outline>
    <contour>
      <point x="301" y="732" type="curve"/>
      <point x="232" y="732" type="line"/>
      <point x="222" y="687"/>
      <point x="198" y="662"/>
      <point x="150" y="662" type="curve" smooth="yes"/>
      <point x="101" y="662"/>
      <point x="78" y="686"/>
      <point x="67" y="732" type="curve"/>
      <point x="0" y="732" type="line"/>
      <point x="8" y="641"/>
      <point x="52" y="572"/>
      <point x="150" y="572" type="curve" smooth="yes"/>
      <point x="254" y="572"/>
      <point x="289" y="639"/>
    </contour>
    <contour>
      <point x="127.545" y="731.727" type="line"/>
      <point x="173" y="731.727" type="line"/>
      <point x="180.273" y="773.545" type="line"/>
      <point x="223" y="775.364"/>
      <point x="263" y="799.909"/>
      <point x="263" y="852.636" type="curve" smooth="yes"/>
      <point x="263" y="899.909"/>
      <point x="218.455" y="923.545"/>
      <point x="167.545" y="923.545" type="curve" smooth="yes"/>
      <point x="135.727" y="923.545"/>
      <point x="102.091" y="914.455"/>
      <point x="74.818" y="896.273" type="curve"/>
      <point x="98.455" y="849" type="line"/>
      <point x="113.909" y="857.182"/>
      <point x="133" y="862.636"/>
      <point x="148.455" y="862.636" type="curve" smooth="yes"/>
      <point x="167.545" y="862.636"/>
      <point x="181.182" y="855.364"/>
      <point x="181.182" y="837.182" type="curve" smooth="yes"/>
      <point x="181.182" y="815.364"/>
      <point x="163.909" y="809"/>
      <point x="144.818" y="809" type="curve" smooth="yes"/>
      <point x="134.818" y="809"/>
      <point x="123.909" y="810.818"/>
      <point x="114.818" y="813.545" type="curve"/>
    </contour>
  </outline>
</glyph>
<glyph name="brevetilde" format="2">
  <advance width="301"/>
  <anchor x="150" y="497" name="_top"/>
  <outline>
    <contour>
      <point x="301" y="732" type="curve"/>
      <point x="232" y="732" type="line"/>
      <point x="222" y="687"/>
      <point x="198" y="662"/>
      <point x="150" y="662" type="curve" smooth="yes"/>
      <point x="101" y="662"/>
      <point x="78" y="686"/>
      <point x="67" y="732" type="curve"/>
      <point x="0" y="732" type="line"/>
      <point x="8" y="641"/>
      <point x="52" y="572"/>
      <point x="150" y="572" type="curve" smooth="yes"/>
      <point x="254" y="572"/>
      <point x="289" y="639"/>
    </contour>
    <contour>
      <point x="300" y="882" type="curve"/>
      <point x="236" y="882" type="line"/>
      <point x="235" y="862"/>
      <point x="222" y="852"/>
      <point x="205" y="852" type="curve" smooth="yes"/>
      <point x="167" y="852"/>
      <point x="150" y="892"/>
      <point x="95" y="892" type="curve" smooth="yes"/>
      <point x="27" y="892"/>
      <point x="-1" y="839"/>
      <point x="-1" y="775" type="curve"/>
      <point x="64" y="775" type="line"/>
      <point x="64" y="795"/>
      <point x="77" y="805"/>
      <point x="94" y="805" type="curve" smooth="yes"/>
      <point x="132" y="805"/>
      <point x="149" y="765"/>
      <point x="204" y="765" type="curve" smooth="yes"/>
      <point x="272" y="765"/>
      <point x="300" y="818"/>
    </contour>
  </outline>
</glyph>
<glyph name="circumflex.case" format="2">
  <advance width="293"/>
  <anchor x="145" y="732" name="_top"/>
  <outline>
    <contour>
      <point x="145" y="832" type="line"/>
      <point x="205" y="788" type="line"/>
      <point x="293" y="788" type="line"/>
      <point x="194" y="913" type="line"/>
      <point x="96" y="913" type="line"/>
      <point x="0" y="788" type="line"/>
      <point x="86" y="788" type="line"/>
    </contour>
  </outline>
</glyph>
<glyph name="dieresisgrave.case" format="2">
  <advance width="325"/>
  <anchor x="166" y="732" name="_top"/>
  <outline>
    <contour>
      <point x="145" y="1077" type="line"/>
      <point x="10" y="1077" type="line"/>
      <point x="121" y="952" type="line"/>
      <point x="214" y="952" type="line"/>
    </contour>
    <contour>
      <point x="189" y="852" type="curve" smooth="yes"/>
      <point x="189" y="817"/>
      <point x="217" y="789"/>
      <point x="252" y="789" type="curve" smooth="yes"/>
      <point x="287" y="789"/>
      <point x="315" y="817"/>
      <point x="315" y="852" type="curve" smooth="yes"/>
      <point x="315" y="887"/>
      <point x="287" y="915"/>
      <point x="252" y="915" type="curve" smooth="yes"/>
      <point x="217" y="915"/>
      <point x="189" y="887"/>
    </contour>
    <contour>
      <point x="18" y="852" type="curve" smooth="yes"/>
      <point x="18" y="817"/>
      <point x="47" y="789"/>
      <point x="82" y="789" type="curve" smooth="yes"/>
      <point x="116" y="789"/>
      <point x="145" y="818"/>
      <point x="145" y="852" type="curve" smooth="yes"/>
      <point x="145" y="886"/>
      <point x="116" y="915"/>
      <point x="82" y="915" type="curve" smooth="yes"/>
      <point x="47" y="915"/>
      <point x="18" y="887"/>
    </contour>
  </outline>
</glyph>
<glyph name="dieresisgrave" format="2">
  <advance width="331"/>
  <anchor x="172" y="497" name="_top"/>
  <outline>
    <contour>
      <point x="145" y="878" type="line"/>
      <point x="10" y="878" type="line"/>
      <point x="121" y="753" type="line"/>
      <point x="214" y="753" type="line"/>
    </contour>
    <contour>
      <point x="195" y="652" type="curve" smooth="yes"/>
      <point x="195" y="617"/>
      <point x="223" y="589"/>
      <point x="258" y="589" type="curve" smooth="yes"/>
      <point x="293" y="589"/>
      <point x="321" y="617"/>
      <point x="321" y="652" type="curve" smooth="yes"/>
      <point x="321" y="687"/>
      <point x="293" y="715"/>
      <point x="258" y="715" type="curve" smooth="yes"/>
      <point x="223" y="715"/>
      <point x="195" y="687"/>
    </contour>
    <contour>
      <point x="24" y="652" type="curve" smooth="yes"/>
      <point x="24" y="617"/>
      <point x="53" y="589"/>
      <point x="88" y="589" type="curve" smooth="yes"/>
      <point x="122" y="589"/>
      <point x="151" y="618"/>
      <point x="151" y="652" type="curve" smooth="yes"/>
      <point x="151" y="686"/>
      <point x="122" y="715"/>
      <point x="88" y="715" type="curve" smooth="yes"/>
      <point x="53" y="715"/>
      <point x="24" y="687"/>
    </contour>
  </outline>
</glyph>
<glyph name="dieresismacron.case" format="2">
  <advance width="315"/>
  <anchor x="157" y="732" name="_top"/>
  <outline>
    <contour>
      <point x="10" y="1029" type="line"/>
      <point x="10" y="955" type="line"/>
      <point x="305" y="955" type="line"/>
      <point x="305" y="1029" type="line"/>
    </contour>
    <contour>
      <point x="134" y="852" type="curve" smooth="yes"/>
      <point x="134" y="887"/>
      <point x="106" y="915"/>
      <point x="71" y="915" type="curve" smooth="yes"/>
      <point x="36" y="915"/>
      <point x="8" y="887"/>
      <point x="8" y="852" type="curve" smooth="yes"/>
      <point x="8" y="817"/>
      <point x="36" y="789"/>
      <point x="71" y="789" type="curve" smooth="yes"/>
      <point x="106" y="789"/>
      <point x="134" y="817"/>
    </contour>
    <contour>
      <point x="305" y="852" type="curve" smooth="yes"/>
      <point x="305" y="887"/>
      <point x="276" y="915"/>
      <point x="241" y="915" type="curve" smooth="yes"/>
      <point x="207" y="915"/>
      <point x="178" y="886"/>
      <point x="178" y="852" type="curve" smooth="yes"/>
      <point x="178" y="818"/>
      <point x="207" y="789"/>
      <point x="241" y="789" type="curve" smooth="yes"/>
      <point x="276" y="789"/>
      <point x="305" y="817"/>
    </contour>
  </outline>
</glyph>
<glyph name="dotaccent.case" format="2">
  <advance width="297"/>
  <anchor x="149" y="732" name="_top"/>
  <outline>
    <contour>
      <point x="212" y="852" type="curve" smooth="yes"/>
      <point x="212" y="887"/>
      <point x="183" y="915"/>
      <point x="148" y="915" type="curve" smooth="yes"/>
      <point x="114" y="915"/>
      <point x="85" y="886"/>
      <point x="85" y="852" type="curve" smooth="yes"/>
      <point x="85" y="818"/>
      <point x="114" y="789"/>
      <point x="148" y="789" type="curve" smooth="yes"/>
      <point x="183" y="789"/>
      <point x="212" y="817"/>
    </contour>
  </outline>
</glyph>
<glyph name="dotaccentmacron" format="2">
  <advance width="315"/>
  <anchor x="157" y="497" name="_top"/>
  <outline>
    <contour>
      <point x="10" y="829" type="line"/>
      <point x="10" y="755" type="line"/>
      <point x="305" y="755" type="line"/>
      <point x="305" y="829" type="line"/>
    </contour>
    <contour>
      <point x="220" y="652" type="curve" smooth="yes"/>
      <point x="220" y="687"/>
      <point x="191" y="715"/>
      <point x="156" y="715" type="curve" smooth="yes"/>
      <point x="122" y="715"/>
      <point x="93" y="686"/>
      <point x="93" y="652" type="curve" smooth="yes"/>
      <point x="93" y="618"/>
      <point x="122" y="589"/>
      <point x="156" y="589" type="curve" smooth="yes"/>
      <point x="191" y="589"/>
      <point x="220" y="617"/>
    </contour>
  </outline>
</glyph>
<glyph name="dotbelow" format="2">
  <advance width="301"/>
  <anchor x="150" y="0" name="_bottom"/>
  <outline>
    <contour>
      <point x="214" y="-132" type="curve" smooth="yes"/>
      <point x="214" y="-97"/>
      <point x="185" y="-69"/>
      <point x="150" y="-69" type="curve" smooth="yes"/>
      <point x="116" y="-69"/>
      <point x="87" y="-98"/>
      <point x="87" y="-132" type="curve" smooth="yes"/>
      <point x="87" y="-166"/>
      <point x="116" y="-195"/>
      <point x="150" y="-195" type="curve" smooth="yes"/>
      <point x="185" y="-195"/>
      <point x="214" y="-167"/>
    </contour>
  </outline>
</glyph>
<glyph name="eight.lf" format="2">
  <advance width="569"/>
  <outline>
    <contour>
      <point x="295" y="711" type="curve" smooth="yes"/>
      <point x="185" y="711"/>
      <point x="71" y="651"/>
      <point x="71" y="529" type="curve" smooth="yes"/>
      <point x="71" y="333"/>
      <point x="390" y="303"/>
      <point x="390" y="176" type="curve" smooth="yes"/>
      <point x="390" y="105"/>
      <point x="330" y="67"/>
      <point x="271" y="67" type="curve" smooth="yes"/>
      <point x="214" y="67"/>
      <point x="158" y="102"/>
      <point x="158" y="176" type="curve" smooth="yes"/>
      <point x="158" y="227"/>
      <point x="187" y="280"/>
      <point x="269" y="314" type="curve"/>
      <point x="209" y="373" type="line"/>
      <point x="91" y="319"/>
      <point x="47" y="245"/>
      <point x="47" y="173" type="curve" smooth="yes"/>
      <point x="47" y="50"/>
      <point x="164" y="-13"/>
      <point x="281" y="-13" type="curve" smooth="yes"/>
      <point x="401" y="-13"/>
      <point x="522" y="52"/>
      <point x="522" y="185" type="curve" smooth="yes"/>
      <point x="522" y="395"/>
      <point x="200" y="416"/>
      <point x="200" y="541" type="curve" smooth="yes"/>
      <point x="200" y="601"/>
      <point x="250" y="633"/>
      <point x="298" y="633" type="curve" smooth="yes"/>
      <point x="342" y="633"/>
      <point x="385" y="605"/>
      <point x="385" y="546" type="curve" smooth="yes"/>
      <point x="385" y="500"/>
      <point x="347" y="439"/>
      <point x="281" y="413" type="curve"/>
      <point x="354" y="370" type="line"/>
      <point x="455" y="424"/>
      <point x="495" y="491"/>
      <point x="495" y="556" type="curve" smooth="yes"/>
      <point x="495" y="659"/>
      <point x="397" y="711"/>
    </contour>
  </outline>
</glyph>
<glyph name="five.lf" format="2">
  <advance width="467"/>
  <guideline x="398" y="489" angle="90"/>
  <guideline x="266" y="489" angle="90"/>
  <outline>
    <contour>
      <point x="124" y="698" type="line"/>
      <point x="48" y="431" type="line"/>
      <point x="212" y="412"/>
      <point x="266" y="324"/>
      <point x="266" y="238" type="curve" smooth="yes"/>
      <point x="266" y="125"/>
      <point x="190" y="52"/>
      <point x="68" y="52" type="curve" smooth="yes"/>
      <point x="51" y="52"/>
      <point x="32" y="54"/>
      <point x="13" y="57" type="curve"/>
      <point x="-1" y="0" type="line"/>
      <point x="32" y="-8"/>
      <point x="65" y="-11"/>
      <point x="97" y="-11" type="curve" smooth="yes"/>
      <point x="263" y="-11"/>
      <point x="397" y="88"/>
      <point x="397" y="246" type="curve" smooth="yes"/>
      <point x="397" y="349"/>
      <point x="332" y="452"/>
      <point x="150" y="490" type="curve"/>
      <point x="178" y="577" type="line"/>
      <point x="422" y="577" type="line"/>
      <point x="457" y="698" type="line"/>
    </contour>
  </outline>
</glyph>
<glyph name="hook.case" format="2">
  <advance width="274"/>
  <anchor x="115" y="732" name="_top"/>
  <outline>
    <contour>
      <point x="93" y="779" type="line"/>
      <point x="143" y="779" type="line"/>
      <point x="151" y="825" type="line"/>
      <point x="198" y="827"/>
      <point x="242" y="854"/>
      <point x="242" y="912" type="curve" smooth="yes"/>
      <point x="242" y="964"/>
      <point x="193" y="990"/>
      <point x="137" y="990" type="curve" smooth="yes"/>
      <point x="102" y="990"/>
      <point x="65" y="980"/>
      <point x="35" y="960" type="curve"/>
      <point x="61" y="908" type="line"/>
      <point x="78" y="917"/>
      <point x="99" y="923"/>
      <point x="116" y="923" type="curve" smooth="yes"/>
      <point x="137" y="923"/>
      <point x="152" y="915"/>
      <point x="152" y="895" type="curve" smooth="yes"/>
      <point x="152" y="871"/>
      <point x="133" y="864"/>
      <point x="112" y="864" type="curve" smooth="yes"/>
      <point x="101" y="864"/>
      <point x="89" y="866"/>
      <point x="79" y="869" type="curve"/>
    </contour>
  </outline>
</glyph>
<glyph name="horn.case" format="2">
  <advance width="331"/>
  <anchor x="-32" y="732" name="_topright"/>
  <outline>
    <contour>
      <point x="62" y="723" type="curve"/>
      <point x="62" y="658" type="line"/>
      <point x="267" y="622"/>
      <point x="321" y="763"/>
      <point x="310" y="863" type="curve"/>
      <point x="194" y="863" type="line"/>
      <point x="206" y="778"/>
      <point x="172" y="694"/>
    </contour>
  </outline>
</glyph>
<glyph name="horn" format="2">
  <advance width="249"/>
  <anchor x="-32" y="497" name="_topright"/>
  <outline>
    <contour>
      <point x="25" y="496" type="curve"/>
      <point x="25" y="434" type="line"/>
      <point x="192" y="398"/>
      <point x="246" y="519"/>
      <point x="238" y="619" type="curve"/>
      <point x="122" y="619" type="line"/>
      <point x="134" y="534"/>
      <point x="100" y="466"/>
    </contour>
  </outline>
</glyph>
<glyph name="macron.case" format="2">
  <advance width="295"/>
  <anchor x="148" y="732" name="_top"/>
  <outline>
    <contour>
      <point x="0" y="889" type="line"/>
      <point x="0" y="815" type="line"/>
      <point x="295" y="815" type="line"/>
      <point x="295" y="889" type="line"/>
    </contour>
  </outline>
</glyph>
<glyph name="macronbelow" format="2">
  <advance width="295"/>
  <anchor x="148" y="0" name="bottom"/>
  <outline>
    <contour>
      <point x="0" y="-111" type="line"/>
      <point x="0" y="-185" type="line"/>
      <point x="295" y="-185" type="line"/>
      <point x="295" y="-111" type="line"/>
    </contour>
  </outline>
</glyph>
<glyph name="nine.lf" format="2">
  <advance width="596"/>
  <outline>
    <contour>
      <point x="305" y="711" type="curve" smooth="yes"/>
      <point x="140" y="711"/>
      <point x="54" y="586"/>
      <point x="54" y="470" type="curve" smooth="yes"/>
      <point x="54" y="370"/>
      <point x="118" y="278"/>
      <point x="253" y="278" type="curve" smooth="yes"/>
      <point x="299" y="278"/>
      <point x="367" y="295"/>
      <point x="421" y="336" type="curve"/>
      <point x="421" y="411" type="line"/>
      <point x="381" y="378"/>
      <point x="331" y="363"/>
      <point x="296" y="363" type="curve" smooth="yes"/>
      <point x="220" y="363"/>
      <point x="186" y="423"/>
      <point x="186" y="485" type="curve" smooth="yes"/>
      <point x="186" y="555"/>
      <point x="225" y="628"/>
      <point x="301" y="628" type="curve" smooth="yes"/>
      <point x="391" y="628"/>
      <point x="410" y="523"/>
      <point x="410" y="404" type="curve" smooth="yes"/>
      <point x="410" y="244"/>
      <point x="367" y="58"/>
      <point x="193" y="58" type="curve" smooth="yes"/>
      <point x="172" y="58"/>
      <point x="138" y="60"/>
      <point x="113" y="65" type="curve"/>
      <point x="97" y="0" type="line"/>
      <point x="133" y="-8"/>
      <point x="177" y="-12"/>
      <point x="208" y="-12" type="curve" smooth="yes"/>
      <point x="443" y="-12"/>
      <point x="542" y="204"/>
      <point x="542" y="400" type="curve" smooth="yes"/>
      <point x="542" y="562"/>
      <point x="483" y="711"/>
    </contour>
  </outline>
</glyph>
<glyph name="ringacute.case" format="2">
  <advance width="283"/>
  <anchor x="141" y="732" name="_top"/>
  <outline>
    <contour>
      <point x="141" y="1004" type="curve" smooth="yes"/>
      <point x="82" y="1004"/>
      <point x="34" y="955"/>
      <point x="34" y="897" type="curve" smooth="yes"/>
      <point x="34" y="838"/>
      <point x="82" y="790"/>
      <point x="141" y="790" type="curve" smooth="yes"/>
      <point x="200" y="790"/>
      <point x="249" y="838"/>
      <point x="249" y="897" type="curve" smooth="yes"/>
      <point x="249" y="955"/>
      <point x="200" y="1004"/>
    </contour>
    <contour>
      <point x="140" y="937" type="curve" smooth="yes"/>
      <point x="163" y="937"/>
      <point x="181" y="919"/>
      <point x="181" y="896" type="curve" smooth="yes"/>
      <point x="181" y="873"/>
      <point x="163" y="856"/>
      <point x="140" y="856" type="curve" smooth="yes"/>
      <point x="117" y="856"/>
      <point x="100" y="873"/>
      <point x="100" y="896" type="curve" smooth="yes"/>
      <point x="100" y="919"/>
      <point x="117" y="937"/>
    </contour>
    <contour>
      <point x="193" y="1167" type="line"/>
      <point x="104" y="1043" type="line"/>
      <point x="174" y="1043" type="line"/>
      <point x="305" y="1167" type="line"/>
    </contour>
  </outline>
</glyph>
<glyph name="slashshortcomb.case" format="2">
  <anchor x="146" y="340" name="_center"/>
  <outline>
    <contour>
      <point x="1" y="215" type="line"/>
      <point x="402" y="400" type="line"/>
      <point x="402" y="498" type="line"/>
      <point x="1" y="312" type="line"/>
    </contour>
  </outline>
</glyph>
<glyph name="three.lf" format="2">
  <advance width="502"/>
  <outline>
    <contour>
      <point x="275" y="711" type="curve" smooth="yes"/>
      <point x="198" y="711"/>
      <point x="119" y="684"/>
      <point x="42" y="637" type="curve"/>
      <point x="102" y="555" type="line"/>
      <point x="146" y="593"/>
      <point x="208" y="619"/>
      <point x="253" y="619" type="curve" smooth="yes"/>
      <point x="291" y="619"/>
      <point x="312" y="596"/>
      <point x="312" y="562" type="curve" smooth="yes"/>
      <point x="312" y="506"/>
      <point x="252" y="421"/>
      <point x="112" y="369" type="curve"/>
      <point x="140" y="311" type="line"/>
      <point x="161" y="319"/>
      <point x="183" y="322"/>
      <point x="204" y="322" type="curve" smooth="yes"/>
      <point x="281" y="322"/>
      <point x="320" y="272"/>
      <point x="320" y="215" type="curve" smooth="yes"/>
      <point x="320" y="142"/>
      <point x="256" y="59"/>
      <point x="129" y="59" type="curve" smooth="yes"/>
      <point x="107" y="59"/>
      <point x="84" y="61"/>
      <point x="60" y="66" type="curve"/>
      <point x="44" y="0" type="line"/>
      <point x="78" y="-7"/>
      <point x="112" y="-11"/>
      <point x="145" y="-11" type="curve" smooth="yes"/>
      <point x="348" y="-11"/>
      <point x="453" y="110"/>
      <point x="453" y="217" type="curve" smooth="yes"/>
      <point x="453" y="294"/>
      <point x="399" y="365"/>
      <point x="290" y="380" type="curve"/>
      <point x="389" y="430"/>
      <point x="439" y="511"/>
      <point x="439" y="580" type="curve" smooth="yes"/>
      <point x="439" y="652"/>
      <point x="386" y="711"/>
    </contour>
  </outline>
</glyph>
<glyph name="tilde.case" format="2">
  <advance width="357"/>
  <anchor x="180" y="732" name="_top"/>
  <outline>
    <contour>
      <point x="349" y="905" type="curve"/>
      <point x="285" y="905" type="line"/>
      <point x="284" y="885"/>
      <point x="261" y="875"/>
      <point x="244" y="875" type="curve" smooth="yes"/>
      <point x="206" y="875"/>
      <point x="169" y="915"/>
      <point x="114" y="915" type="curve" smooth="yes"/>
      <point x="46" y="915"/>
      <point x="8" y="862"/>
      <point x="8" y="798" type="curve"/>
      <point x="73" y="798" type="line"/>
      <point x="73" y="818"/>
      <point x="96" y="828"/>
      <point x="113" y="828" type="curve" smooth="yes"/>
      <point x="151" y="828"/>
      <point x="188" y="788"/>
      <point x="243" y="788" type="curve" smooth="yes"/>
      <point x="311" y="788"/>
      <point x="349" y="841"/>
    </contour>
  </outline>
</glyph>
<glyph name="tildemacron.case" format="2">
  <advance width="357"/>
  <anchor x="180" y="732" name="_top"/>
  <outline>
    <contour>
      <point x="349" y="906" type="curve"/>
      <point x="285" y="906" type="line"/>
      <point x="284" y="886"/>
      <point x="261" y="876"/>
      <point x="244" y="876" type="curve" smooth="yes"/>
      <point x="206" y="876"/>
      <point x="169" y="916"/>
      <point x="114" y="916" type="curve" smooth="yes"/>
      <point x="46" y="916"/>
      <point x="8" y="863"/>
      <point x="8" y="799" type="curve"/>
      <point x="73" y="799" type="line"/>
      <point x="73" y="819"/>
      <point x="96" y="829"/>
      <point x="113" y="829" type="curve" smooth="yes"/>
      <point x="151" y="829"/>
      <point x="188" y="789"/>
      <point x="243" y="789" type="curve" smooth="yes"/>
      <point x="311" y="789"/>
      <point x="349" y="842"/>
    </contour>
    <contour>
      <point x="21" y="1030" type="line"/>
      <point x="21" y="956" type="line"/>
      <point x="336" y="956" type="line"/>
      <point x="336" y="1030" type="line"/>
    </contour>
  </outline>
</glyph>
<glyph name="tildemacron" format="2">
  <advance width="357"/>
  <anchor x="180" y="497" name="_top"/>
  <outline>
    <contour>
      <point x="349" y="706" type="curve"/>
      <point x="285" y="706" type="line"/>
      <point x="284" y="686"/>
      <point x="261" y="676"/>
      <point x="244" y="676" type="curve" smooth="yes"/>
      <point x="206" y="676"/>
      <point x="169" y="716"/>
      <point x="114" y="716" type="curve" smooth="yes"/>
      <point x="46" y="716"/>
      <point x="8" y="663"/>
      <point x="8" y="599" type="curve"/>
      <point x="73" y="599" type="line"/>
      <point x="73" y="619"/>
      <point x="96" y="629"/>
      <point x="113" y="629" type="curve" smooth="yes"/>
      <point x="151" y="629"/>
      <point x="188" y="589"/>
      <point x="243" y="589" type="curve" smooth="yes"/>
      <point x="311" y="589"/>
      <point x="349" y="642"/>
    </contour>
    <contour>
      <point x="21" y="830" type="line"/>
      <point x="21" y="756" type="line"/>
      <point x="336" y="756" type="line"/>
      <point x="336" y="830" type="line"/>
    </contour>
  </outline>
</glyph>
<glyph name="two.lf" format="2">
  <advance width="540"/>
  <outline>
    <contour>
      <point x="474" y="525" type="curve" smooth="yes"/>
      <point x="474" y="645"/>
      <point x="392" y="709"/>
      <point x="282" y="709" type="curve" smooth="yes"/>
      <point x="207" y="709"/>
      <point x="122" y="679"/>
      <point x="52" y="617" type="curve"/>
      <point x="112" y="535" type="line"/>
      <point x="166" y="586"/>
      <point x="223" y="615"/>
      <point x="267" y="615" type="curve" smooth="yes"/>
      <point x="316" y="615"/>
      <point x="342" y="582"/>
      <point x="342" y="512" type="curve" smooth="yes"/>
      <point x="342" y="371"/>
      <point x="231" y="199"/>
      <point x="48" y="77" type="curve"/>
      <point x="48" y="0" type="line"/>
      <point x="478" y="0" type="line"/>
      <point x="499" y="99" type="line"/>
      <point x="224" y="99" type="line"/>
      <point x="342" y="200"/>
      <point x="474" y="339"/>
    </contour>
  </outline>
</glyph>
<glyph name="zero.lf" format="2">
  <advance width="604"/>
  <outline>
    <contour>
      <point x="307" y="710" type="curve" smooth="yes"/>
      <point x="140" y="710"/>
      <point x="52" y="596"/>
      <point x="52" y="349" type="curve" smooth="yes"/>
      <point x="52" y="106"/>
      <point x="134" y="-12"/>
      <point x="297" y="-12" type="curve" smooth="yes"/>
      <point x="460" y="-12"/>
      <point x="552" y="106"/>
      <point x="552" y="349" type="curve" smooth="yes"/>
      <point x="552" y="595"/>
      <point x="473" y="710"/>
    </contour>
    <contour>
      <point x="302" y="629" type="curve" smooth="yes"/>
      <point x="399" y="629"/>
      <point x="420" y="527"/>
      <point x="420" y="349" type="curve" smooth="yes"/>
      <point x="420" y="168"/>
      <point x="404" y="69"/>
      <point x="302" y="69" type="curve" smooth="yes"/>
      <point x="201" y="69"/>
      <point x="183" y="168"/>
      <point x="183" y="349" type="curve" smooth="yes"/>
      <point x="183" y="526"/>
      <point x="207" y="629"/>
    </contour>
  </outline>
</glyph>
<glyph name="zero.lf.zero" format="2">
  <advance width="604"/>
  <outline>
    <contour>
      <point x="124" y="154" type="line"/>
      <point x="182" y="96" type="line"/>
      <point x="480" y="554" type="line"/>
      <point x="422" y="611" type="line"/>
    </contour>
    <component base="zero.lf"/>
  </outline>
</glyph>
<glyph name="zero.tosf.zero" format="2">
  <advance width="600"/>
  <outline>
    <contour>
      <point x="156" y="91" type="line"/>
      <point x="218" y="48" type="line"/>
      <point x="440" y="406" type="line"/>
      <point x="377" y="448" type="line"/>
    </contour>
    <component base="zero" xOffset="18"/>
  </outline>
</glyph>
